# Blender v2.77 (sub 0) OBJ File: ''
# www.blender.org
g Rocks_Sharp_l_06_Collider
v -1.000453 -0.008133 -0.587624
v -1.173212 0.022380 0.034314
v -1.084600 0.932995 -0.281353
v -0.685973 1.427110 -0.409870
v -0.493724 0.003138 -0.489055
v -0.537147 0.300542 0.033411
v -0.245204 0.278290 -0.113582
v 0.214738 0.054226 -0.539426
v -0.427061 2.424736 -0.656894
v -0.683962 0.047286 -0.423795
v -0.010422 0.147948 -1.062591
v -0.565518 0.163893 -0.941109
v 0.557937 3.201777 1.397781
v 0.830832 1.969892 1.263839
v 0.664010 1.678622 0.552907
v 0.567891 -0.001513 0.919718
v -0.216777 1.965365 0.794673
v -0.100740 1.698415 1.264950
v 0.424004 1.877954 1.599630
v -0.119857 -0.007482 1.104820
v -0.244939 0.006072 0.475353
v 0.434870 0.013962 0.244344
v -1.203823 -0.000000 0.630802
v -1.043554 1.089996 0.911694
v -0.517018 0.084425 -0.381540
v -0.247790 0.080983 1.528944
v 0.427234 -0.029525 0.399123
v -1.340748 1.910424 2.451434
v -0.102350 0.475080 0.389126
v -1.470947 1.960475 2.135859
v -1.193866 -0.000000 1.149577
v 2.615136 3.514138 -0.215929
v 1.650584 2.876500 -0.271712
v 2.228224 3.191412 0.218502
v 1.040130 1.493627 -0.731164
v 1.270928 2.127085 0.249556
v 2.064060 2.044833 -0.601536
v 2.358724 2.229400 -0.197604
v 1.744928 2.110473 -0.730519
v 1.267053 1.203701 0.594338
v 0.890631 1.787517 0.068507
v 0.125302 0.715612 -0.472947
v 1.670852 0.618059 -0.400752
v 1.257287 0.869448 -0.890583
v 2.356801 2.455998 0.171852
v 1.843757 1.012242 0.312751
v -0.330323 -0.017880 0.391848
v 0.826945 0.046568 0.639822
v 1.443718 0.013907 0.275180
v 1.132103 -0.001379 -0.842214
v -0.040416 0.016332 -0.914092
vn -0.9635 0.0010 -0.2677
vn 0.1886 0.0799 -0.9788
vn 0.9910 0.1334 0.0064
vn -0.1459 0.3367 0.9302
vn -0.5338 0.2181 -0.8170
vn 0.7189 0.2272 0.6569
vn -0.6204 0.1427 0.7712
vn -0.2082 0.1345 -0.9688
vn 0.9195 0.2377 -0.3132
vn 0.9771 -0.0973 -0.1894
vn -0.8513 0.3375 0.4016
vn 0.6501 -0.2140 0.7291
vn 0.6282 0.0548 0.7761
vn -0.9807 -0.0176 0.1945
vn 0.9760 -0.0983 -0.1945
vn -0.5720 0.1799 0.8003
vn -0.5181 -0.0742 0.8521
vn -0.0840 0.4789 -0.8739
vn -0.8099 0.2552 -0.5282
vn 0.8396 0.2616 0.4761
vn 0.6381 0.7565 -0.1433
vn 0.2652 0.8271 -0.4955
vn -0.8473 0.2459 -0.4707
vn -0.8999 -0.2908 0.3251
vn -0.2677 -0.5565 0.7865
vn 0.5608 0.5767 -0.5941
vn 0.6880 0.7203 -0.0882
vn 0.2323 0.8114 -0.5363
vn -0.5523 0.8248 0.1209
vn -0.9061 0.4191 -0.0574
vn 0.8317 -0.1735 -0.5274
vn -0.2631 0.4717 -0.8416
vn -0.3387 0.3304 0.8810
vn -0.6608 0.6560 -0.3646
vn -0.3837 0.4393 -0.8123
vn 0.7013 -0.1868 -0.6880
vn 0.9299 -0.3113 0.1958
vn -0.2144 0.1196 0.9694
vn 0.4867 -0.2268 0.8436
vn 0.3897 0.0943 -0.9161
vn 0.7138 0.0807 0.6957
vn 0.9735 -0.1925 0.1232
vn 0.9580 -0.2753 -0.0801
vn 0.7195 -0.1412 -0.6800
vn 0.3265 -0.2194 -0.9194
vn -0.6761 0.6197 0.3986
vn -0.6053 0.2807 0.7449
vn -0.8237 0.5652 0.0454
vn -0.1652 0.1897 -0.9678
vn 0.8080 -0.5475 -0.2178
vn -0.1184 0.2069 -0.9712
vn -0.6112 0.5208 -0.5960
vn 0.0601 -0.0640 -0.9961
vn -0.9196 0.3411 -0.1952
vn 0.9283 -0.3712 -0.0199
vn 0.3581 0.0034 0.9337
vn -0.1319 0.3478 0.9282
vn 0.9084 0.2286 -0.3500
vn -0.9752 0.0854 -0.2040
vn -0.9723 -0.0110 0.2336
vn -0.3194 0.1569 -0.9345
vn -0.1965 0.2048 -0.9589
vn 0.2494 -0.3125 0.9166
vn -0.9886 -0.1493 0.0190
vn -0.5093 0.7726 -0.3791
vn -0.4319 0.4337 0.7908
vn 0.4038 -0.1179 0.9072
vn 0.7964 -0.4872 -0.3583
vn 0.4214 -0.0614 0.9048
s off
f 1//1 2//1 3//1
f 1//2 4//2 5//2
f 4//3 6//3 5//3
f 6//4 3//4 2//4
f 4//5 1//5 3//5
f 7//6 8//6 9//6
f 9//7 10//7 7//7
f 11//8 12//8 9//8
f 13//9 14//9 15//9
f 16//10 15//10 14//10
f 13//11 17//11 18//11
f 19//12 16//12 14//12
f 13//13 19//13 14//13
f 20//14 17//14 21//14
f 16//15 22//15 15//15
f 18//16 19//16 13//16
f 18//17 20//17 19//17
f 15//18 17//18 13//18
f 23//19 24//19 25//19
f 26//20 27//20 28//20
f 28//21 29//21 30//21
f 30//22 29//22 24//22
f 23//23 30//23 24//23
f 30//24 31//24 28//24
f 31//25 26//25 28//25
f 27//26 25//26 29//26
f 28//27 27//27 29//27
f 25//28 24//28 29//28
f 32//29 33//29 34//29
f 35//30 36//30 33//30
f 37//31 32//31 38//31
f 39//32 33//32 32//32
f 40//33 34//33 36//33
f 41//34 35//34 42//34
f 35//35 33//35 39//35
f 39//36 43//36 44//36
f 45//37 46//37 38//37
f 40//38 47//38 48//38
f 46//39 48//39 49//39
f 39//40 32//40 37//40
f 45//41 32//41 34//41
f 32//42 45//42 38//42
f 37//43 46//43 43//43
f 44//44 43//44 50//44
f 37//45 43//45 39//45
f 34//46 33//46 36//46
f 41//47 40//47 36//47
f 47//48 41//48 42//48
f 35//49 39//49 44//49
f 50//50 43//50 49//50
f 44//51 51//51 35//51
f 42//52 35//52 51//52
f 50//53 51//53 44//53
f 51//54 47//54 42//54
f 43//55 46//55 49//55
f 40//56 45//56 34//56
f 4//57 3//57 6//57
f 8//58 11//58 9//58
f 12//59 10//59 9//59
f 20//60 18//60 17//60
f 21//61 17//61 22//61
f 15//62 22//62 17//62
f 20//63 16//63 19//63
f 30//64 23//64 31//64
f 35//65 41//65 36//65
f 40//66 41//66 47//66
f 46//67 40//67 48//67
f 37//68 38//68 46//68
f 40//69 46//69 45//69
