# Blender v2.77 (sub 0) OBJ File: ''
# www.blender.org
g Rock_Sharp_m_13_Collider
v 0.952904 1.326290 -0.050683
v 0.370444 1.085635 -0.084369
v 0.719261 1.204488 0.211654
v 0.117174 0.618100 -0.398230
v 0.062877 0.771266 0.167649
v -0.115957 0.110224 0.515038
v -0.550619 0.270083 -0.205887
v 0.305811 0.034536 -0.138685
v -0.090684 0.051450 -0.497800
v 0.712620 0.817973 -0.188839
v 0.635110 0.623077 0.241071
v -0.832269 -0.014151 0.318221
v -0.650691 0.006164 -0.472279
vn -0.3847 0.9192 0.0842
vn -0.7817 0.5790 -0.2317
vn -0.2132 0.6215 -0.7538
vn -0.3874 0.5088 0.7688
vn -0.5050 0.8197 -0.2703
vn 0.6643 -0.1139 -0.7388
vn 0.2936 0.1190 -0.9485
vn 0.7622 -0.0778 0.6427
vn 0.9066 -0.4211 -0.0274
vn 0.8850 -0.4628 -0.0502
vn 0.3974 -0.2626 -0.8793
vn -0.5369 0.7810 0.3190
vn -0.6528 0.7553 0.0588
vn -0.0603 0.1942 -0.9791
vn -0.5090 0.6994 -0.5017
vn -0.8449 0.5032 -0.1812
vn 0.3441 -0.0023 0.9389
vn 0.6085 -0.6417 0.4669
vn -0.3091 0.5066 0.8049
s off
f 1//1 2//1 3//1
f 4//2 5//2 2//2
f 4//3 2//3 1//3
f 6//4 3//4 5//4
f 5//5 4//5 7//5
f 4//6 8//6 9//6
f 4//7 1//7 10//7
f 11//8 1//8 3//8
f 1//9 11//9 10//9
f 10//10 11//10 8//10
f 10//11 8//11 4//11
f 3//12 2//12 5//12
f 12//13 5//13 7//13
f 9//14 13//14 4//14
f 7//15 4//15 13//15
f 13//16 12//16 7//16
f 6//17 11//17 3//17
f 11//18 6//18 8//18
f 6//19 5//19 12//19
