# Blender v2.77 (sub 0) OBJ File: 'LowPoly_Level_Kit_Rocks.blend'
# www.blender.org
g Cloud_01
v -0.644447 -3.480218 -0.022066
v -0.018045 -3.409494 -2.806130
v 1.302679 -4.044257 -0.007490
v -2.851755 -2.881502 -2.447041
v -2.463911 -0.514103 -3.840153
v 0.986116 -2.537396 -3.782249
v -0.092582 1.269265 -4.800629
v -9.793759 0.992242 -0.374477
v -6.347963 2.895233 -1.877428
v -7.552422 1.865023 -2.645416
v 5.697441 0.584092 3.901617
v 7.154295 1.080027 2.243830
v 2.215294 3.089525 1.476992
v 5.455694 2.536305 0.653077
v 1.619186 4.647250 0.087901
v -1.712102 3.429440 0.421783
v -4.706225 4.149828 -1.862771
v -4.731657 2.958773 1.922010
v 3.597036 -3.718580 -0.584552
v 1.971182 -2.995158 1.565462
v 5.455923 -2.523490 1.576877
v 4.108464 -1.007856 -2.921818
v 2.271410 1.471316 -3.418683
v 6.700809 -0.609782 -2.411388
v -2.636690 1.758253 -3.741526
v -4.479159 0.688718 -3.957789
v -8.832025 -0.451958 -2.337245
v -2.763033 3.500948 -2.087791
v -7.329370 2.575688 1.061794
v 3.729908 3.364635 -2.180633
v 0.318658 3.603921 -2.842467
v 2.017709 4.714930 -1.209818
v 5.357991 2.249497 -1.799863
v 0.656837 -0.133282 3.381868
v 6.078973 -0.996272 3.653728
v -0.890729 -1.214432 2.908984
v 1.530070 -2.130501 3.722923
v -2.713390 -3.129748 0.789526
v -3.443905 -0.625537 2.494065
v -4.233388 1.655790 2.982625
v -5.689130 0.562851 3.160841
v -0.062279 2.044273 2.181145
v -5.060304 -1.886536 -3.408206
v -8.707457 -0.128563 0.843677
v -8.617126 -1.392917 -0.737314
v -5.961840 -1.902554 0.615486
v -5.042392 -2.816449 -2.441902
v 7.936270 0.266324 -2.441210
v 8.519222 1.022368 -1.567124
v 8.018668 -1.443931 -0.355254
v 8.284137 -0.390312 0.825328
v 4.874536 -2.898100 -1.148938
vt 0.9546 0.0997
vt 0.9443 0.0974
vt 0.9530 0.0940
vt 0.9476 0.1063
vt 0.9032 0.0559
vt 0.9094 0.0426
vt 0.9129 0.0553
vt 0.8950 0.0487
vt 0.9576 0.0649
vt 0.9596 0.0496
vt 0.9640 0.0544
vt 0.9370 0.0908
vt 0.9288 0.0885
vt 0.9376 0.0792
vt 0.9278 0.0818
vt 0.9350 0.0725
vt 0.9478 0.0353
vt 0.9575 0.0424
vt 0.9444 0.0473
vt 0.9502 0.0857
vt 0.9597 0.0902
vt 0.9586 0.0777
vt 0.9023 0.0313
vt 0.8936 0.0392
vt 0.8998 0.0217
vt 0.8947 0.0573
vt 0.8995 0.0637
vt 0.9064 0.0777
vt 0.8969 0.0742
vt 0.9652 0.0372
vt 0.9577 0.0366
vt 0.9495 0.0558
vt 0.8860 0.0338
vt 0.8865 0.0467
vt 0.9505 0.0198
vt 0.9586 0.0256
vt 0.8897 0.0272
vt 0.9228 0.0766
vt 0.9300 0.0717
vt 0.9329 0.0531
vt 0.9413 0.0712
vt 0.9354 0.0717
vt 0.9688 0.0736
vt 0.9767 0.0649
vt 0.9771 0.0736
vt 0.9590 0.1063
vt 0.9686 0.1051
vt 0.9302 0.0377
vt 0.9215 0.0377
vt 0.9243 0.0316
vt 0.9460 0.0223
vt 0.9210 0.0604
vt 0.9137 0.0589
vt 0.9153 0.0463
vt 0.9233 0.0519
vt 0.9413 0.0333
vt 0.9154 0.0365
vt 0.9137 0.0264
vt 0.9655 0.0621
vt 0.9098 0.0644
vt 0.9222 0.0187
vt 0.9161 0.0151
vt 0.8933 0.0893
vt 0.8936 0.0967
vt 0.8860 0.0964
vt 0.9020 0.0901
vt 0.9020 0.0818
vt 0.9100 0.0777
vt 0.9100 0.0914
vt 0.9135 0.0452
vt 0.9413 0.0927
vt 0.9767 0.0151
vt 0.9767 0.0286
vt 0.9680 0.0200
vt 0.8958 0.0176
vt 0.8930 0.0152
vt 0.9680 0.0539
vt 0.9771 0.0535
vt 0.9771 0.0626
vt 0.9030 0.0151
vt 0.9179 0.0965
vt 0.9137 0.0870
vt 0.9214 0.0934
vt 0.9485 0.0801
vt 0.9350 0.0965
vt 0.9757 0.0286
vt 0.9757 0.0411
vt 0.9680 0.0374
vt 0.9680 0.0447
vt 0.9413 0.0717
vt 0.9413 0.0848
vt 0.9376 0.0780
vt 0.9680 0.0286
vt 0.9542 0.0151
vt 0.9201 0.0814
vt 0.9688 0.0905
vt 0.9677 0.0734
vt 0.9682 0.0973
vt 0.9413 0.0543
vt 0.9351 0.0462
vt 0.9680 0.0512
vt 0.9755 0.0411
vt 0.9755 0.0535
vt 0.8867 0.0869
vt 0.8987 0.0785
vt 0.8939 0.0777
vt 0.9020 0.1026
vt 0.9137 0.0632
vt 0.9098 0.0265
vt 0.9137 0.0304
vt 0.9057 0.0976
vt 0.9733 0.0736
vt 0.9733 0.0794
vt 0.9688 0.0773
vt 0.9516 0.0674
vt 0.9570 0.0649
vn -0.2766 -0.9571 -0.0865
vn -0.1911 -0.9792 -0.0679
vn -0.1910 -0.9792 -0.0680
vn -0.2549 -0.4590 -0.8511
vn -0.2550 -0.4589 -0.8511
vn -0.1582 -0.2968 -0.9417
vn -0.5450 0.8069 -0.2277
vn 0.2648 0.8349 0.4825
vn 0.2647 0.8350 0.4824
vn 0.2862 0.6964 0.6581
vn 0.0005 0.9539 0.3002
vn 0.2383 -0.8517 0.4668
vn 0.1218 -0.9093 0.3980
vn 0.2000 -0.0479 -0.9786
vn -0.3825 0.0110 -0.9239
vn -0.3659 0.0787 -0.9273
vn 0.0878 0.0499 -0.9949
vn -0.1562 0.6739 -0.7221
vn -0.6025 0.7898 -0.1153
vn 0.2011 0.4229 -0.8836
vn -0.1404 0.8804 -0.4530
vn 0.3921 0.2725 -0.8786
vn 0.5749 0.8104 -0.1132
vn -0.0767 -0.1726 0.9820
vn -0.2257 -0.7635 0.6051
vn -0.4176 -0.8697 0.2632
vn 0.2428 -0.4964 0.8334
vn -0.1738 -0.2634 0.9489
vn 0.2174 -0.1319 0.9671
vn -0.3244 0.9319 0.1624
vn -0.1517 0.6249 0.7658
vn -0.1206 0.7219 0.6814
vn 0.1342 0.8359 0.5323
vn 0.0850 0.6484 0.7566
vn -0.3171 0.5485 0.7737
vn -0.1536 0.4377 0.8859
vn -0.7326 0.3250 -0.5981
vn -0.3160 -0.1293 -0.9399
vn -0.6008 0.2448 0.7610
vn -0.8299 -0.4579 0.3188
vn -0.4196 -0.7204 0.5522
vn -0.2804 -0.9395 0.1965
vn 0.3322 -0.1548 -0.9304
vn 0.1336 -0.5188 -0.8444
vn 0.1338 -0.5188 -0.8444
vn -0.2105 -0.6112 -0.7629
vn -0.2106 -0.6114 -0.7628
vn 0.2365 -0.8327 -0.5007
vn -0.3502 -0.9350 -0.0567
vn -0.3501 -0.9350 -0.0567
vn 0.2934 0.6175 -0.7298
vn 0.3670 0.9221 -0.1224
vn 0.4652 -0.6755 -0.5722
vn 0.9766 -0.2128 -0.0297
vn 0.5405 -0.8413 0.0003
vn 0.7382 0.0730 0.6706
vn 0.7382 0.0731 0.6707
vn 0.7875 0.0106 0.6162
vn 0.7874 0.0106 0.6163
vn 0.5377 0.8237 0.1800
vn 0.5376 0.8238 0.1801
vn -0.1921 -0.9791 -0.0669
vn -0.1920 -0.9791 -0.0669
vn -0.0626 0.6478 0.7592
vn 0.2651 0.8353 0.4817
vn 0.2651 0.8354 0.4816
vn 0.3046 0.9471 -0.1006
vn -0.2652 -0.5942 0.7593
vn 0.3626 0.3546 -0.8618
vn 0.4838 0.1871 -0.8549
vn 0.3850 0.5523 -0.7394
vn -0.0740 0.6502 -0.7561
vn -0.2299 0.5574 -0.7978
vn -0.0771 0.1125 -0.9907
vn -0.1819 0.6505 -0.7374
vn -0.1982 0.6671 -0.7181
vn 0.1811 0.7151 -0.6751
vn 0.5797 0.8063 -0.1174
vn 0.2118 -0.8166 0.5370
vn 0.1222 -0.9124 0.3907
vn -0.2111 -0.7818 0.5867
vn -0.0244 0.1579 0.9872
vn -0.3094 0.0271 0.9506
vn -0.2715 -0.7724 0.5742
vn -0.1921 -0.1493 0.9700
vn -0.1639 -0.6998 0.6953
vn -0.2420 0.9700 -0.0237
vn 0.4528 0.8723 0.1845
vn -0.2331 0.9281 0.2905
vn -0.3370 0.5135 0.7891
vn 0.1165 0.5088 0.8530
vn -0.5073 0.8584 -0.0760
vn -0.8970 -0.4230 -0.1283
vn -0.4263 -0.6557 -0.6231
vn -0.4951 -0.7763 -0.3901
vn -0.6248 0.2590 0.7366
vn -0.3640 -0.6492 0.6678
vn -0.0595 -0.1955 -0.9789
vn -0.0231 -0.7207 -0.6929
vn -0.0230 -0.7206 -0.6930
vn 0.2422 -0.6097 -0.7547
vn 0.4507 -0.5067 -0.7350
vn 0.2823 -0.8018 -0.5267
vn -0.0279 -0.9600 0.2786
vn -0.0278 -0.9600 0.2787
vn 0.0732 -0.9646 -0.2533
vn -0.1293 0.1490 -0.9804
vn 0.4590 -0.6811 -0.5705
vn 0.8917 -0.3321 -0.3075
vn 0.8744 0.3753 0.3075
vn 0.8745 0.3752 0.3075
vn 0.4117 -0.9106 0.0373
vn 0.6794 -0.6167 0.3976
vn 0.5803 -0.7294 0.3622
s off
f 1/1/1 2/2/1 3/3/1
f 1/1/2 4/4/3 2/2/2
f 5/5/4 6/6/4 4/7/5
f 6/6/6 5/5/6 7/8/6
f 8/9/7 9/10/7 10/11/7
f 11/12/8 12/13/9 13/14/8
f 13/14/10 14/15/10 15/16/10
f 16/17/11 17/18/11 18/19/11
f 3/3/12 19/20/12 20/21/12
f 20/21/13 19/20/13 21/22/13
f 22/23/14 23/24/14 24/25/14
f 7/8/15 5/5/15 25/26/15
f 26/27/16 27/28/16 10/29/16
f 5/5/17 26/27/17 25/26/17
f 25/30/18 9/10/18 28/31/18
f 17/18/19 9/10/19 29/32/19
f 30/33/20 23/24/20 31/34/20
f 32/35/21 31/36/21 28/31/21
f 33/37/22 23/24/22 30/33/22
f 14/15/23 30/38/23 32/39/23
f 34/40/24 35/41/24 11/42/24
f 1/1/25 3/3/25 20/21/25
f 36/43/26 20/44/26 37/45/26
f 38/46/27 1/1/27 39/47/27
f 39/48/28 34/40/28 40/49/28
f 41/50/29 39/48/29 40/49/29
f 15/51/30 28/31/30 16/17/30
f 13/52/31 15/53/31 16/54/31
f 13/52/32 16/54/32 42/55/32
f 42/56/33 16/17/33 18/19/33
f 42/55/34 18/57/34 40/49/34
f 41/50/35 40/49/35 29/58/35
f 34/40/36 11/42/36 42/55/36
f 27/59/37 8/9/37 10/11/37
f 27/28/38 26/27/38 43/60/38
f 44/61/39 29/58/39 8/62/39
f 45/63/40 44/64/40 8/65/40
f 46/66/41 44/64/41 45/63/41
f 46/67/42 45/68/42 47/69/42
f 6/6/43 7/8/43 22/23/43
f 4/7/44 43/60/45 5/5/45
f 4/7/46 6/6/47 2/70/47
f 2/2/48 6/71/48 19/20/48
f 46/72/49 4/73/50 38/74/49
f 48/75/51 33/37/51 49/76/51
f 49/77/52 33/78/52 14/79/52
f 50/80/53 24/25/53 48/75/53
f 50/81/54 49/82/54 51/83/54
f 19/20/55 52/84/55 21/22/55
f 35/85/56 12/13/57 11/12/56
f 35/85/58 51/83/58 12/13/59
f 12/13/60 49/82/61 14/15/61
f 1/1/62 38/46/62 4/4/63
f 42/55/64 11/42/64 13/52/64
f 13/14/65 12/13/66 14/15/65
f 16/17/67 28/31/67 17/18/67
f 46/86/68 38/87/68 39/88/68
f 33/37/69 24/25/69 23/24/69
f 22/23/70 7/8/70 23/24/70
f 23/24/71 7/8/71 31/34/71
f 9/10/72 26/89/72 10/11/72
f 25/30/73 26/89/73 9/10/73
f 28/90/74 9/91/74 17/92/74
f 31/36/75 7/93/75 25/30/75
f 31/36/76 25/30/76 28/31/76
f 30/94/77 31/36/77 32/35/77
f 14/15/78 33/95/78 30/38/78
f 37/96/79 21/22/79 35/97/79
f 37/96/80 20/21/80 21/22/80
f 36/98/81 1/1/81 20/21/81
f 34/40/82 37/99/82 35/41/82
f 36/100/83 37/99/83 34/40/83
f 39/47/84 1/1/84 36/98/84
f 39/48/85 36/100/85 34/40/85
f 41/101/86 46/102/86 39/103/86
f 15/51/87 32/35/87 28/31/87
f 15/16/88 14/15/88 32/39/88
f 18/19/89 17/18/89 29/32/89
f 29/58/90 40/49/90 18/57/90
f 40/49/91 34/40/91 42/55/91
f 8/9/92 29/32/92 9/10/92
f 45/63/93 8/65/93 27/104/93
f 47/105/94 27/104/94 43/106/94
f 47/105/95 45/63/95 27/104/95
f 44/61/96 41/50/96 29/58/96
f 46/66/97 41/107/97 44/64/97
f 5/5/98 43/60/98 26/27/98
f 4/7/99 47/108/100 43/60/100
f 52/109/101 22/23/101 24/25/101
f 6/6/102 22/23/102 52/109/102
f 19/110/103 6/6/103 52/109/103
f 46/67/104 47/69/104 4/111/105
f 3/3/106 2/2/106 19/20/106
f 48/75/107 24/25/107 33/37/107
f 50/80/108 52/109/108 24/25/108
f 50/112/109 48/113/109 49/114/109
f 51/83/110 49/82/110 12/13/111
f 21/22/112 52/84/112 50/115/112
f 35/97/113 50/115/113 51/116/113
f 21/22/114 50/115/114 35/97/114
