# Blender v2.77 (sub 0) OBJ File: 'LowPoly_Level_Kit_Rocks.blend'
# www.blender.org
g Rocks_Sharp_l_06
v -1.049019 0.997400 -0.280006
v -1.049442 0.437787 -0.007942
v -0.771730 0.000000 0.158428
v -0.725249 1.217857 -0.440098
v -0.963730 0.000000 -0.587938
v -0.483547 0.711738 -0.144838
v -0.564364 1.123863 -0.309902
v -0.569873 0.880028 -0.434205
v -0.495073 0.000000 -0.488712
v -1.201765 0.000000 -0.192655
v -1.082006 0.000000 -0.511103
v -1.125096 0.666431 -0.317432
v -0.716741 0.000000 0.130601
v -0.439069 0.385723 -0.095235
v -0.419499 0.000000 -0.174136
v -1.139129 0.000000 -0.028825
v -1.059716 0.338764 0.013524
v -0.927689 0.000000 0.123934
v -0.922183 1.318086 -0.280574
v -0.825655 1.347775 -0.176591
v -0.736261 1.391782 -0.167369
v -0.698024 1.416039 -0.192084
v -0.745398 1.366298 -0.390105
v -0.655713 1.379617 -0.285650
v -0.691318 1.425108 -0.221809
v -0.786770 1.401170 -0.353225
v -0.680956 -0.000000 -0.458070
v -0.596535 -0.000000 -0.853742
v -0.540615 0.364684 -0.959858
v 0.132309 -0.000000 -0.882938
v -0.675215 0.127986 -0.430236
v -0.296236 -0.000000 -0.162721
v 0.215388 -0.000000 -0.572068
v -0.310910 0.158679 -0.144942
v -0.256382 0.574510 -0.172748
v -0.433824 2.048860 -0.740054
v -0.458863 2.108400 -0.597230
v -0.409846 2.085194 -0.554157
v -0.362748 2.047739 -0.565162
v -0.413733 2.031188 -0.750607
v -0.224595 0.615159 -1.043862
v 0.034645 0.337159 -0.975062
v -0.357638 1.864592 -0.798267
v -0.140156 1.343019 -0.813734
v 0.164339 0.300104 -0.519805
v -0.128505 0.698211 -0.270355
v -0.103841 1.476521 -0.515883
v -0.077429 1.405225 -0.528594
v -0.255708 -0.004674 0.698192
v -0.124425 -0.004674 1.094452
v -0.113828 -0.004674 0.399235
v -0.211482 1.777201 0.834605
v -0.058346 1.620367 1.304254
v 0.374683 2.159817 1.590691
v -0.106056 2.009250 1.112695
v 0.711389 2.680657 1.393193
v -0.093696 2.052211 0.809307
v 0.199574 2.746679 1.183601
v 0.455846 3.088820 1.337567
v 0.604378 3.037916 1.307689
v 0.277404 -0.004674 0.293752
v 0.503674 1.605508 0.535466
v 0.701560 1.886314 0.689747
v 0.504753 -0.004674 0.411261
v 0.781751 2.345152 1.379242
v 0.592510 2.087217 1.514636
v 0.830832 1.969892 1.263839
v -0.095724 -0.004674 1.109718
v 0.250318 0.906738 1.369511
v 0.574170 -0.004674 0.911990
v 0.457903 0.879663 1.299451
v -0.162885 0.984584 0.562262
v -0.241121 1.100955 0.760864
v 0.374249 0.850996 0.391118
v -0.097073 1.056381 1.192421
v 0.690731 1.026605 1.111908
v 0.607321 1.031152 0.538509
v -1.043554 1.089996 0.911694
v -0.781494 0.000000 -0.099088
v -1.447230 1.851020 1.998850
v -1.203823 0.000000 0.630802
v -1.193866 0.000000 1.149577
v 0.368333 0.000000 0.507074
v -1.157430 1.697697 2.275066
v -0.415998 0.000000 -0.398615
v -0.499159 0.332777 -0.087438
v -0.102350 0.475080 0.389126
v 0.346959 0.000000 0.207518
v -0.695618 0.000000 1.437873
v -0.576653 0.181264 1.639591
v -0.091323 0.000000 1.301474
v -0.335470 0.206926 1.617513
v -1.421849 1.712972 2.273431
v -1.352236 1.905390 2.377178
v -1.376093 1.738781 2.318826
v -1.456853 1.935696 2.140237
v -1.419555 1.962149 2.207725
v -1.419333 1.971186 2.334080
v -1.455560 1.947528 2.297408
v 2.615136 3.514138 -0.215930
v 2.042668 3.104666 -0.337499
v 2.291900 3.332311 0.074543
v 1.257287 0.869448 -0.890583
v 1.273244 0.004191 -0.664982
v 0.752561 0.002106 -0.918905
v 2.114360 2.889852 0.298673
v 1.621454 0.972710 0.450507
v 2.356801 2.455998 0.171852
v 2.064060 2.044833 -0.601536
v 2.358724 2.229400 -0.197604
v 1.354776 1.420292 0.568241
v 0.978013 0.333195 0.638517
v 0.769710 0.784407 0.534520
v 0.504404 0.012169 0.579053
v -0.294402 0.002472 0.014733
v 1.202395 -0.000939 0.435235
v 2.014410 2.543947 -0.609861
v 1.270928 2.127085 0.249556
v 1.581315 1.854287 -0.769569
v 1.497095 2.549418 -0.406837
v 0.657649 1.450344 -0.272607
v 1.040130 1.493627 -0.731164
v 0.125302 0.715612 -0.472947
v 1.676011 0.973040 -0.575029
v 1.837916 0.986209 0.208672
v -0.270784 0.023364 0.411599
v 0.671977 1.460369 0.124731
v 1.675673 0.434403 -0.151588
v 1.604109 2.749638 0.001770
v 1.523211 0.067125 0.177448
v -0.040416 0.016332 -0.914092
vt 0.8165 0.5720
vt 0.8128 0.5720
vt 0.8132 0.5641
vt 0.7971 0.6079
vt 0.8005 0.6119
vt 0.7987 0.6118
vt 0.7985 0.5992
vt 0.7969 0.5952
vt 0.8001 0.5948
vt 0.7922 0.5940
vt 0.7901 0.6047
vt 0.7879 0.5940
vt 0.8133 0.5942
vt 0.8177 0.5989
vt 0.8125 0.5989
vt 0.7846 0.5999
vt 0.7862 0.6036
vt 0.7986 0.6005
vt 0.8017 0.5948
vt 0.8014 0.6125
vt 0.7949 0.5955
vt 0.8153 0.5815
vt 0.8185 0.5989
vt 0.8133 0.5901
vt 0.8135 0.5816
vt 0.8147 0.5812
vt 0.8125 0.5848
vt 0.8159 0.5546
vt 0.8167 0.5563
vt 0.8134 0.5557
vt 0.7922 0.6088
vt 0.7895 0.6080
vt 0.7843 0.5951
vt 0.7905 0.6112
vt 0.7922 0.6107
vt 0.7956 0.6039
vt 0.7994 0.6130
vt 0.8014 0.6130
vt 0.8016 0.6128
vt 0.8144 0.5811
vt 0.8182 0.5717
vt 0.8129 0.5599
vt 0.8151 0.5543
vt 0.7922 0.6113
vt 0.3473 0.5637
vt 0.3515 0.5721
vt 0.3513 0.5730
vt 0.3512 0.5581
vt 0.3435 0.5557
vt 0.3515 0.5543
vt 0.3531 0.5174
vt 0.3528 0.5422
vt 0.3471 0.5364
vt 0.3488 0.5811
vt 0.3497 0.5821
vt 0.3474 0.5819
vt 0.3412 0.5395
vt 0.3422 0.5186
vt 0.3433 0.5209
vt 0.3435 0.5998
vt 0.3475 0.5913
vt 0.3455 0.6039
vt 0.3511 0.5897
vt 0.3470 0.5843
vt 0.3451 0.5626
vt 0.3472 0.5416
vt 0.3523 0.5177
vt 0.3358 0.5423
vt 0.3358 0.5407
vt 0.3396 0.5435
vt 0.3474 0.5821
vt 0.3496 0.5815
vt 0.3425 0.5188
vt 0.3452 0.5363
vt 0.3511 0.6047
vt 0.3466 0.6082
vt 0.3471 0.5391
vt 0.3510 0.5906
vt 0.3507 0.5805
vt 0.3502 0.5811
vt 0.3435 0.5577
vt 0.3410 0.5174
vt 0.3471 0.5435
vt 0.3531 0.5438
vt 0.2895 0.5703
vt 0.2916 0.5776
vt 0.2887 0.5744
vt 0.3000 0.5664
vt 0.3040 0.5793
vt 0.2977 0.5823
vt 0.3287 0.5748
vt 0.3336 0.5671
vt 0.3336 0.5827
vt 0.3287 0.5678
vt 0.3305 0.5550
vt 0.3041 0.5909
vt 0.3257 0.5793
vt 0.3271 0.5890
vt 0.3298 0.5940
vt 0.3336 0.5728
vt 0.3366 0.5827
vt 0.3342 0.5811
vt 0.2955 0.5861
vt 0.2979 0.5930
vt 0.2942 0.5766
vt 0.3229 0.5760
vt 0.3236 0.5677
vt 0.2912 0.5650
vt 0.2896 0.5657
vt 0.3230 0.5796
vt 0.3389 0.5948
vt 0.3432 0.5833
vt 0.3435 0.5940
vt 0.3343 0.5594
vt 0.3355 0.5543
vt 0.3372 0.5546
vt 0.3435 0.5695
vt 0.3347 0.5693
vt 0.2872 0.5905
vt 0.2873 0.5790
vt 0.3026 0.5704
vt 0.3038 0.5744
vt 0.2909 0.5922
vt 0.2866 0.6030
vt 0.2987 0.6056
vt 0.2953 0.5955
vt 0.3302 0.5549
vt 0.3256 0.5543
vt 0.3041 0.6038
vt 0.3429 0.5737
vt 0.2942 0.6026
vt 0.2934 0.5918
vt 0.3352 0.5944
vt 0.7015 0.5954
vt 0.7067 0.5944
vt 0.7053 0.5998
vt 0.6960 0.5874
vt 0.7063 0.5777
vt 0.6822 0.5663
vt 0.6817 0.5653
vt 0.6822 0.5650
vt 0.6917 0.5707
vt 0.6950 0.5664
vt 0.6950 0.5739
vt 0.6664 0.5791
vt 0.6741 0.5650
vt 0.6736 0.6005
vt 0.6650 0.5808
vt 0.6577 0.5735
vt 0.6593 0.5737
vt 0.6575 0.5756
vt 0.7165 0.5514
vt 0.7176 0.5280
vt 0.7205 0.5534
vt 0.6606 0.5743
vt 0.6613 0.5756
vt 0.6581 0.5762
vt 0.7234 0.5364
vt 0.7067 0.5612
vt 0.6817 0.5664
vt 0.6491 0.5910
vt 0.6568 0.5973
vt 0.6921 0.5677
vt 0.6674 0.5736
vt 0.6741 0.6042
vt 0.6727 0.6028
vt 0.6507 0.5942
vt 0.7131 0.5225
vt 0.7234 0.5228
vt 0.6589 0.5732
vt 0.7195 0.5543
vt 0.7182 0.5540
vt 0.7105 0.5244
vt 0.7217 0.5508
vt 0.7211 0.5526
vt 0.1677 0.5732
vt 0.1693 0.5653
vt 0.1717 0.5690
vt 0.2203 0.5276
vt 0.2147 0.5187
vt 0.2208 0.5174
vt 0.1661 0.5421
vt 0.1753 0.5497
vt 0.1703 0.5561
vt 0.2165 0.5425
vt 0.2148 0.5612
vt 0.2114 0.5465
vt 0.2009 0.5518
vt 0.1951 0.5611
vt 0.1974 0.5500
vt 0.1931 0.5255
vt 0.1929 0.5396
vt 0.1894 0.5303
vt 0.2002 0.5318
vt 0.2045 0.5217
vt 0.2054 0.5281
vt 0.1645 0.5593
vt 0.1931 0.5593
vt 0.1876 0.5477
vt 0.1633 0.5494
vt 0.1726 0.5390
vt 0.1716 0.5280
vt 0.2208 0.5395
vt 0.2148 0.5303
vt 0.1962 0.5327
vt 0.1815 0.5181
vt 0.1753 0.5269
vt 0.1779 0.5174
vt 0.1796 0.5374
vt 0.1832 0.5378
vt 0.1895 0.5203
vt 0.2045 0.5617
vt 0.1994 0.5639
vt 0.2189 0.5482
vt 0.1915 0.5650
vt 0.1866 0.5559
vt 0.2005 0.5174
vt 0.2063 0.5341
vt 0.2087 0.5261
vt 0.2063 0.5664
vt 0.1826 0.5529
vt 0.1737 0.5586
vt 0.1599 0.5369
vt 0.1658 0.6125
vt 0.1594 0.6065
vt 0.1620 0.6023
vt 0.1658 0.5988
vt 0.1659 0.5198
vt 0.1594 0.5244
vt 0.1753 0.5174
vt 0.1931 0.5551
vt 0.2063 0.5480
vt 0.7903 0.6120
vt 0.3504 0.6084
vt 0.3471 0.5426
vt 0.2959 0.6059
vt 0.6613 0.5988
vt 0.7234 0.5174
vn -0.9352 0.0417 -0.3517
vn -0.7409 0.2941 0.6038
vn -0.5852 0.0359 0.8101
vn 0.2065 0.0780 -0.9753
vn 0.7118 -0.1059 0.6943
vn 0.9678 0.0967 -0.2325
vn -0.2103 0.2279 0.9507
vn -0.9202 0.1717 0.3518
vn 0.4430 0.1936 0.8754
vn 0.9083 0.2964 0.2953
vn -0.5546 0.1970 -0.8085
vn 0.7011 0.3112 -0.6416
vn -0.4493 0.8778 0.1664
vn 0.9082 0.2964 0.2953
vn -0.5333 0.2041 -0.8209
vn -0.5465 0.2147 -0.8095
vn -0.5475 0.2172 -0.8081
vn 0.3487 0.8442 -0.4071
vn 0.7638 0.1720 0.6221
vn 0.6245 -0.0297 0.7805
vn -0.6180 0.1329 0.7749
vn 0.5729 0.7873 -0.2278
vn -0.3586 0.1431 -0.9224
vn 0.4621 0.2182 -0.8596
vn 0.8840 0.3768 -0.2767
vn 0.4124 0.2622 0.8725
vn -0.9741 0.0889 -0.2078
vn 0.9456 0.2049 -0.2527
vn -0.0385 -0.2737 -0.9610
vn -0.6026 -0.1437 0.7850
vn 0.5135 0.0721 0.8551
vn 0.9466 0.2107 -0.2438
vn -0.4471 -0.1123 0.8874
vn -0.4765 -0.0689 0.8765
vn 0.9728 -0.1118 -0.2028
vn -0.9636 0.0132 0.2669
vn -0.7157 0.2411 0.6555
vn -0.9093 0.0843 -0.4076
vn 0.5288 0.0910 -0.8438
vn 0.3619 0.1168 0.9249
vn -0.9483 0.0070 0.3173
vn 0.2868 0.3034 0.9087
vn -0.9185 0.3951 0.0185
vn -0.9242 0.3815 0.0164
vn -0.2578 0.1380 -0.9563
vn -0.0337 0.4310 -0.9017
vn -0.0661 0.4675 -0.8815
vn -0.6497 0.2111 -0.7303
vn 0.6562 -0.2140 0.7236
vn 0.9333 0.2099 -0.2913
vn 0.9377 0.2082 -0.2783
vn 0.6907 -0.2121 0.6913
vn 0.5022 0.0563 -0.8629
vn -0.9492 -0.0053 0.3145
vn 0.6878 -0.1297 0.7142
vn 0.9873 -0.0809 -0.1369
vn -0.7213 0.2364 0.6510
vn -0.2554 0.2336 -0.9382
vn -0.4958 -0.1360 0.8577
vn -0.0305 0.4842 -0.8744
vn 0.9860 -0.0835 -0.1441
vn -0.4685 -0.0692 0.8808
vn 0.2573 -0.3540 0.8992
vn -0.9031 0.0258 -0.4286
vn 0.4860 0.0831 -0.8700
vn 0.2900 -0.1991 0.9361
vn -0.5519 0.4918 -0.6734
vn -0.8384 0.2483 -0.4851
vn -0.5019 0.8628 -0.0608
vn 0.1389 -0.7759 0.6153
vn 0.8384 0.2483 0.4851
vn 0.1218 -0.3436 0.9312
vn -0.6446 -0.1689 0.7457
vn 0.7158 0.6965 -0.0511
vn -0.9894 -0.1441 0.0190
vn 0.2775 0.8324 -0.4796
vn -0.4229 -0.5358 0.7308
vn 0.4652 0.6638 -0.5856
vn -0.5621 0.8193 -0.1127
vn 0.4282 -0.2206 -0.8763
vn -0.9108 0.4097 -0.0503
vn 0.8317 -0.1735 -0.5274
vn 0.7249 -0.2698 0.6338
vn -0.1992 0.1318 0.9710
vn 0.6341 0.1316 0.7620
vn -0.1247 0.4386 -0.8900
vn -0.3638 0.3467 0.8646
vn -0.3303 0.4049 -0.8526
vn -0.6430 0.5968 -0.4800
vn 0.6151 -0.1064 -0.7813
vn 0.9251 -0.3215 0.2020
vn -0.8545 0.5190 0.0235
vn -0.8345 0.5507 0.0162
vn -0.2077 0.1273 0.9699
vn 0.4629 -0.2127 0.8605
vn 0.5067 0.0360 -0.8614
vn -0.5288 0.5427 0.6525
vn -0.2081 0.1274 0.9698
vn 0.6205 0.1318 0.7730
vn 0.9735 -0.1925 0.1232
vn -0.3266 0.4262 -0.8436
vn 0.9671 -0.2485 -0.0548
vn 0.1752 -0.4232 0.8890
vn 0.8294 -0.1266 -0.5441
vn 0.3803 -0.1602 -0.9109
vn -0.7448 0.6672 0.0100
vn -0.5064 0.3038 0.8070
vn -0.8174 0.5704 0.0803
vn -0.8817 0.4718 -0.0003
vn 0.7297 -0.2416 0.6397
vn 0.3229 0.0163 -0.9463
vn 0.8559 -0.3199 -0.4063
vn -0.6440 0.7643 -0.0327
vn -0.1890 0.1808 -0.9652
vn 0.8250 -0.5265 -0.2055
vn 0.2147 -0.9766 0.0093
vn -0.1184 0.2069 -0.9712
vn -0.6112 0.5208 -0.5960
vn -0.0054 0.0358 -0.9993
vn -0.8995 0.3649 -0.2405
vn 0.9427 -0.3253 0.0737
vn 0.4041 -0.0413 0.9138
vn -0.9402 0.0196 0.3401
vn 0.1818 0.2437 0.9527
vn -0.2678 0.1437 -0.9527
vn 0.6883 -0.2009 0.6971
vn 0.4586 0.0491 -0.8873
vn -0.9487 -0.0047 0.3162
vn -0.7214 0.2328 0.6522
vn -0.2453 0.2226 -0.9436
vn -0.0270 0.4959 -0.8679
vn 0.9861 -0.0832 -0.1441
vn 0.2644 -0.3577 0.8957
vn -0.9229 0.0339 -0.3834
vn 0.2655 -0.1931 0.9446
vn -0.5290 0.7642 -0.3691
vn 0.6364 -0.2851 0.7167
vn -0.4090 0.4291 0.8054
vn 0.3280 -0.0527 0.9432
vn -0.6936 0.7018 -0.1622
vn 0.8042 -0.4599 -0.3765
vn 0.5976 -0.4958 -0.6302
vn -0.4820 0.4022 0.7784
vn 0.3817 -0.0156 0.9241
s off
f 11/1/1 10/2/1 12/3/1
f 1/4/2 20/5/2 19/6/2
f 17/7/3 16/8/3 18/9/3
f 5/10/4 8/11/4 9/12/4
f 14/13/5 13/14/5 15/15/5
f 14/16/6 8/11/6 6/17/6
f 2/18/7 3/19/7 21/20/7
f 10/21/8 17/7/8 2/18/8
f 21/22/9 3/23/9 6/24/9
f 24/25/10 22/26/10 7/27/10
f 23/28/11 4/29/11 19/30/11
f 1/4/2 2/18/2 20/5/2
f 5/10/4 4/31/4 8/11/4
f 7/32/6 6/17/6 8/11/6
f 14/16/6 15/33/6 9/12/6
f 9/12/6 8/11/6 14/16/6
f 24/34/12 4/31/12 23/35/12
f 21/20/7 20/5/7 2/18/7
f 2/18/7 17/7/7 3/19/7
f 18/9/7 3/19/7 17/7/7
f 2/18/8 1/4/8 12/36/8
f 12/36/8 10/21/8 2/18/8
f 16/8/8 17/7/8 10/21/8
f 26/37/13 21/20/13 25/38/13
f 14/13/9 6/24/9 3/23/9
f 22/26/9 21/22/9 6/24/9
f 3/23/9 13/14/9 14/13/9
f 21/20/13 22/39/13 25/38/13
f 19/6/13 20/5/13 26/37/13
f 6/24/10 7/27/10 22/26/10
f 24/25/14 25/40/14 22/26/14
f 8/11/12 4/31/12 7/32/12
f 11/1/15 12/3/15 5/41/15
f 1/42/16 19/30/16 4/29/16
f 26/43/11 23/28/11 19/30/11
f 4/29/15 5/41/15 12/3/15
f 12/3/17 1/42/17 4/29/17
f 26/44/18 24/34/18 23/35/18
f 46/45/19 48/46/19 47/47/19
f 45/48/20 32/49/20 33/50/20
f 37/51/21 31/52/21 35/53/21
f 37/54/22 39/55/22 36/56/22
f 29/57/23 36/58/23 43/59/23
f 41/60/24 44/61/24 42/62/24
f 47/63/25 43/64/25 39/55/25
f 35/65/26 46/45/26 47/47/26
f 46/45/19 45/48/19 48/46/19
f 34/66/21 35/53/21 31/52/21
f 38/67/21 37/51/21 35/53/21
f 27/68/27 31/69/27 28/70/27
f 29/57/27 28/70/27 31/69/27
f 40/71/22 36/56/22 39/55/22
f 37/54/22 38/72/22 39/55/22
f 40/73/23 43/59/23 36/58/23
f 41/74/23 29/57/23 43/59/23
f 41/60/24 43/64/24 44/61/24
f 45/75/28 30/76/28 42/62/28
f 29/57/29 41/74/29 42/77/29
f 40/71/25 39/55/25 43/64/25
f 47/63/25 48/78/25 44/61/25
f 44/61/25 43/64/25 47/63/25
f 47/47/26 39/79/26 38/80/26
f 38/80/26 35/65/26 47/47/26
f 42/77/29 28/70/29 29/57/29
f 45/48/20 46/45/20 35/65/20
f 35/65/20 34/81/20 45/48/20
f 45/75/28 44/61/28 48/78/28
f 29/57/27 37/82/27 36/58/27
f 32/83/30 31/52/30 27/84/30
f 56/85/31 66/86/31 65/87/31
f 60/88/32 67/89/32 63/90/32
f 53/91/33 69/92/33 54/93/33
f 75/94/34 68/95/34 69/92/34
f 76/96/35 63/90/35 67/89/35
f 53/91/36 55/97/36 75/94/36
f 58/98/37 54/93/37 59/99/37
f 52/100/38 72/101/38 73/102/38
f 62/103/39 63/90/39 77/104/39
f 56/85/40 54/105/40 66/86/40
f 75/94/41 52/106/41 73/107/41
f 59/108/42 56/85/42 60/109/42
f 52/106/43 55/97/43 57/110/43
f 58/98/44 57/110/44 55/97/44
f 51/111/45 74/112/45 61/113/45
f 58/114/46 59/115/46 60/116/46
f 60/116/47 63/117/47 58/114/47
f 72/101/48 52/100/48 57/118/48
f 66/86/49 76/119/49 67/120/49
f 60/88/50 56/121/50 67/89/50
f 65/122/51 67/89/51 56/121/51
f 76/119/52 71/123/52 70/124/52
f 64/125/53 74/126/53 77/104/53
f 50/127/54 73/107/54 49/128/54
f 65/87/55 66/86/55 67/120/55
f 70/129/56 64/125/56 77/104/56
f 55/97/57 54/93/57 58/98/57
f 62/130/58 72/101/58 57/118/58
f 53/91/59 75/94/59 69/92/59
f 63/117/60 57/118/60 58/114/60
f 77/104/61 76/96/61 70/129/61
f 75/94/62 50/127/62 68/95/62
f 68/131/63 71/123/63 69/132/63
f 49/133/64 72/101/64 51/111/64
f 74/126/65 62/103/65 77/104/65
f 66/86/66 69/132/66 71/123/66
f 79/134/67 86/135/67 85/136/67
f 81/137/68 78/138/68 79/134/68
f 99/139/69 97/140/69 96/141/69
f 92/142/70 89/143/70 91/144/70
f 92/145/71 83/146/71 84/147/71
f 90/148/72 92/145/72 84/147/72
f 94/149/73 99/150/73 95/151/73
f 84/152/74 87/153/74 97/154/74
f 96/155/75 80/156/75 93/157/75
f 97/154/76 87/153/76 78/158/76
f 79/134/67 78/138/67 86/135/67
f 81/137/68 80/159/68 78/138/68
f 99/139/69 98/160/69 97/140/69
f 90/161/77 93/157/77 82/162/77
f 92/142/70 90/163/70 89/143/70
f 92/145/71 91/164/71 83/146/71
f 84/147/72 94/165/72 95/166/72
f 95/166/72 90/148/72 84/147/72
f 80/156/75 82/162/75 93/157/75
f 82/162/77 89/167/77 90/161/77
f 88/168/78 86/169/78 87/153/78
f 93/157/73 95/151/73 99/150/73
f 94/149/73 98/170/73 99/150/73
f 98/171/74 94/172/74 97/154/74
f 84/152/74 83/173/74 87/153/74
f 88/168/74 87/153/74 83/173/74
f 97/154/74 94/172/74 84/152/74
f 99/150/75 96/155/75 93/157/75
f 86/169/76 78/158/76 87/153/76
f 80/174/76 96/175/76 97/154/76
f 97/154/76 78/158/76 80/174/76
f 100/176/79 101/177/79 102/178/79
f 103/179/80 104/180/80 105/181/80
f 122/182/81 118/183/81 120/184/81
f 109/185/82 100/186/82 110/187/82
f 107/188/83 130/189/83 125/190/83
f 112/191/84 111/192/84 113/193/84
f 108/194/85 102/195/85 106/196/85
f 117/197/86 101/177/86 100/176/86
f 111/192/87 106/198/87 118/199/87
f 119/200/88 120/184/88 117/197/88
f 121/201/89 122/182/89 123/202/89
f 122/182/88 120/184/88 119/200/88
f 119/203/90 124/204/90 103/179/90
f 108/194/91 125/190/91 110/205/91
f 126/206/92 123/207/92 115/208/92
f 121/209/93 126/206/93 127/210/93
f 113/193/94 126/206/94 114/211/94
f 107/188/95 112/212/95 116/213/95
f 117/214/96 100/186/96 109/185/96
f 102/215/97 129/216/97 106/198/97
f 114/211/98 112/191/98 113/193/98
f 108/194/99 100/217/99 102/195/99
f 100/217/100 108/194/100 110/205/100
f 120/184/101 101/177/101 117/197/101
f 109/185/102 125/218/102 128/219/102
f 116/213/103 112/212/103 114/220/103
f 103/179/104 128/219/104 104/180/104
f 109/185/105 124/204/105 119/203/105
f 118/199/106 121/209/106 127/210/106
f 106/198/97 129/216/97 118/199/97
f 127/210/107 111/192/107 118/199/107
f 126/206/108 121/209/108 123/207/108
f 118/199/109 129/216/109 120/221/109
f 108/194/110 107/188/110 125/190/110
f 119/203/111 117/214/111 109/185/111
f 109/185/112 128/219/112 124/204/112
f 101/177/113 129/222/113 102/178/113
f 122/182/114 119/200/114 103/223/114
f 104/224/115 128/225/115 130/226/115
f 116/227/116 104/224/116 130/226/116
f 103/223/117 131/228/117 122/182/117
f 123/202/118 122/182/118 131/228/118
f 105/229/119 131/228/119 103/223/119
f 131/228/120 115/230/120 123/202/120
f 128/231/121 125/190/121 130/189/121
f 111/232/122 108/194/122 106/196/122
f 24/34/12 7/32/12 4/31/12
f 26/37/13 20/5/13 21/20/13
f 26/44/18 25/233/18 24/34/18
f 45/48/20 34/81/20 32/49/20
f 45/75/28 33/234/28 30/76/28
f 42/77/29 30/235/29 28/70/29
f 45/75/28 42/62/28 44/61/28
f 29/57/27 31/69/27 37/82/27
f 32/83/30 34/66/30 31/52/30
f 75/94/123 55/97/123 52/106/123
f 59/108/124 54/105/124 56/85/124
f 51/111/125 72/101/125 74/112/125
f 66/86/126 71/123/126 76/119/126
f 64/125/127 61/236/127 74/126/127
f 50/127/128 75/94/128 73/107/128
f 55/97/129 53/91/129 54/93/129
f 62/130/130 74/112/130 72/101/130
f 63/117/131 62/130/131 57/118/131
f 77/104/132 63/90/132 76/96/132
f 68/131/133 70/124/133 71/123/133
f 49/133/134 73/102/134 72/101/134
f 66/86/135 54/105/135 69/132/135
f 90/161/77 95/151/77 93/157/77
f 80/156/75 81/237/75 82/162/75
f 88/168/78 85/238/78 86/169/78
f 122/182/136 121/201/136 118/183/136
f 107/188/137 116/213/137 130/189/137
f 113/193/138 127/210/138 126/206/138
f 107/188/139 111/232/139 112/212/139
f 120/184/140 129/222/140 101/177/140
f 109/185/141 110/187/141 125/218/141
f 103/179/142 124/204/142 128/219/142
f 127/210/143 113/193/143 111/192/143
f 111/232/144 107/188/144 108/194/144
