# Blender v2.77 (sub 0) OBJ File: 'LowPoly_Level_Kit_Rocks.blend'
# www.blender.org
g Rock_Sharp_m_13
v 0.952904 1.326290 -0.050683
v 0.607211 1.171749 -0.124095
v 0.757713 1.257665 0.124723
v 0.132947 0.328143 -0.458083
v 0.142582 0.001582 -0.321850
v -0.171840 0.000795 -0.475186
v 0.650503 1.090675 0.260067
v 0.352854 0.367116 0.351754
v 0.796904 0.926932 0.183484
v 0.620128 0.771752 -0.283537
v 0.798065 0.841410 -0.039617
v 0.191817 0.536040 0.422850
v -0.035697 0.125753 0.465287
v -0.161484 0.296047 0.402487
v -0.321693 0.004593 0.429379
v -0.804064 0.000933 0.088605
v 0.099799 -0.000354 0.342532
v 0.590146 0.960125 -0.288565
v 0.141184 0.802795 0.230407
v 0.328616 0.699836 -0.385007
v 0.277758 0.962190 -0.165966
v -0.229154 0.547382 -0.084909
v 0.001813 0.563718 -0.361815
v -0.550619 0.270083 -0.205887
v 0.385799 0.367240 -0.267531
v 0.483568 0.372210 0.205718
v -0.789802 0.008818 0.328259
v -0.220501 0.551166 0.155030
v 0.385595 0.163950 -0.011830
v 0.342380 1.037756 0.080777
v 0.293529 0.025334 0.186864
v -0.650691 0.006164 -0.472279
vt 0.5262 0.6041
vt 0.5236 0.5888
vt 0.5312 0.5953
vt 0.5630 0.5432
vt 0.5558 0.5347
vt 0.5626 0.5244
vt 0.5144 0.5536
vt 0.5328 0.5626
vt 0.5217 0.5725
vt 0.5410 0.5368
vt 0.5500 0.5106
vt 0.5493 0.5318
vt 0.5957 0.5571
vt 0.5880 0.5692
vt 0.5909 0.5531
vt 0.5728 0.5698
vt 0.5756 0.5504
vt 0.5791 0.5678
vt 0.5945 0.5271
vt 0.5997 0.5184
vt 0.6011 0.5266
vt 0.5664 0.5766
vt 0.5702 0.5846
vt 0.5660 0.5999
vt 0.5779 0.5194
vt 0.5838 0.5427
vt 0.5666 0.5605
vt 0.5728 0.5685
vt 0.5226 0.5446
vt 0.5181 0.5271
vt 0.5706 0.5471
vt 0.5582 0.5531
vt 0.5558 0.5296
vt 0.5543 0.5566
vt 0.5328 0.5106
vt 0.5257 0.5107
vt 0.5297 0.5442
vt 0.5880 0.5943
vt 0.5771 0.5816
vt 0.6003 0.5759
vt 0.5937 0.5757
vt 0.5618 0.5719
vt 0.5805 0.5106
vt 0.5858 0.5291
vt 0.5944 0.5106
vt 0.5178 0.5832
vt 0.5473 0.5652
vt 0.6025 0.5881
vt 0.5367 0.5747
vt 0.5399 0.5565
vt 0.5880 0.5606
vt 0.5293 0.5759
vt 0.5525 0.5731
vt 0.5558 0.5786
vt 0.5728 0.5106
vt 0.5091 0.5177
vt 0.6025 0.5568
vt 0.5328 0.5621
vn -0.3929 0.9162 -0.0787
vn 0.4129 -0.3403 -0.8448
vn -0.8109 0.5835 -0.0447
vn 0.8128 -0.2713 -0.5155
vn 0.6870 -0.4090 0.6006
vn -0.1966 0.2081 0.9581
vn 0.6257 0.2077 0.7519
vn -0.1094 0.6154 -0.7806
vn -0.3339 0.5090 0.7934
vn -0.2948 0.5781 -0.7609
vn -0.5156 0.7656 -0.3849
vn 0.6097 -0.1687 -0.7745
vn 0.8585 -0.4774 0.1875
vn -0.7170 0.6968 0.0197
vn -0.6876 0.7260 0.0133
vn -0.2051 0.2011 0.9579
vn 0.4473 -0.3289 0.8317
vn 0.5062 0.0576 -0.8605
vn -0.4377 0.7188 0.5401
vn -0.2055 0.2014 0.9577
vn 0.6123 0.2081 0.7628
vn 0.9465 -0.2995 0.1197
vn -0.2883 0.6020 -0.7447
vn 0.9236 -0.3798 -0.0524
vn 0.1549 -0.5986 0.7859
vn 0.7963 -0.4738 -0.3760
vn 0.3729 -0.2514 -0.8932
vn -0.5722 0.8201 0.0077
vn -0.4734 0.4545 0.7545
vn -0.6658 0.7433 0.0654
vn -0.7596 0.6503 -0.0002
vn 0.6986 -0.3701 0.6124
vn 0.3229 0.0261 -0.9461
vn 0.7948 -0.4753 -0.3773
vn -0.4658 0.8845 -0.0237
vn -0.1843 0.2821 -0.9415
vn 0.6893 -0.7039 -0.1717
vn 0.1361 -0.9907 0.0059
vn -0.1146 0.3204 -0.9403
vn -0.5123 0.6985 -0.4996
vn -0.0054 0.0572 -0.9983
vn -0.8185 0.5312 -0.2189
vn 0.8734 -0.4822 0.0683
vn 0.4036 -0.0659 0.9126
vn -0.3827 0.8845 -0.2670
vn 0.5995 -0.4298 0.6752
vn -0.3605 0.6051 0.7098
vn 0.3273 -0.0841 0.9412
vn -0.5216 0.8444 -0.1220
vn 0.6973 -0.6381 -0.3265
vn 0.6040 -0.2916 -0.7417
vn -0.4307 0.5750 0.6956
vn 0.3817 -0.0250 0.9240
s off
f 1/1/1 2/2/1 3/3/1
f 4/4/2 5/5/2 6/6/2
f 23/7/3 19/8/3 21/9/3
f 10/10/4 1/11/4 11/12/4
f 8/13/5 31/14/5 26/15/5
f 13/16/6 12/17/6 14/18/6
f 9/19/7 3/20/7 7/21/7
f 18/22/8 2/23/8 1/24/8
f 12/17/9 7/25/9 19/26/9
f 20/27/10 21/28/10 18/22/10
f 22/29/11 23/7/11 24/30/11
f 23/31/10 21/28/10 20/27/10
f 20/27/12 25/32/12 4/4/12
f 9/33/13 26/34/13 11/12/13
f 27/35/14 24/30/14 16/36/14
f 22/29/15 27/35/15 28/37/15
f 14/18/16 27/38/16 15/39/16
f 8/13/17 13/40/17 17/41/17
f 18/22/18 1/24/18 10/42/18
f 3/43/19 30/44/19 7/25/19
f 15/39/20 13/16/20 14/18/20
f 9/19/21 1/45/21 3/20/21
f 1/11/22 9/33/22 11/12/22
f 21/9/23 2/2/23 18/46/23
f 10/10/24 26/34/24 29/47/24
f 17/41/25 13/40/25 15/48/25
f 5/49/26 25/50/26 29/47/26
f 10/42/27 25/32/27 20/27/27
f 19/8/28 22/29/28 28/37/28
f 7/25/19 30/44/19 19/26/19
f 28/51/29 12/17/29 19/26/29
f 27/35/30 22/29/30 24/30/30
f 19/8/31 30/52/31 21/9/31
f 9/19/32 8/13/32 26/15/32
f 20/27/33 18/22/33 10/42/33
f 10/10/34 29/47/34 25/50/34
f 2/2/35 30/52/35 3/3/35
f 23/31/36 20/27/36 4/4/36
f 5/49/37 29/47/37 31/53/37
f 17/54/38 5/49/38 31/53/38
f 4/4/39 32/55/39 23/31/39
f 24/30/40 23/7/40 32/56/40
f 6/6/41 32/55/41 4/4/41
f 32/56/42 16/36/42 24/30/42
f 29/47/43 26/34/43 31/53/43
f 12/57/44 9/19/44 7/21/44
f 23/7/45 22/29/45 19/8/45
f 8/13/46 17/41/46 31/14/46
f 14/18/47 28/51/47 27/38/47
f 8/13/48 12/57/48 13/40/48
f 21/9/49 30/52/49 2/2/49
f 10/10/50 11/12/50 26/34/50
f 5/49/51 4/58/51 25/50/51
f 28/51/52 14/18/52 12/17/52
f 12/57/53 8/13/53 9/19/53
