# Blender v2.77 (sub 0) OBJ File: 'LowPoly_Level_Kit_Rocks.blend'
# www.blender.org
g Rock_Round_m_12
v -0.187311 0.365328 -0.508907
v -0.153438 0.423574 -0.302250
v 0.433479 0.423574 -0.084746
v 0.189605 0.323413 -0.508907
v 0.783144 0.212321 -0.149560
v 0.540258 0.343688 -0.311395
v -0.783144 0.290371 -0.144686
v -0.330679 0.326483 -0.508907
v -0.423524 0.164395 -0.508907
v 0.137964 0.151412 -0.508907
v -0.297492 0.082938 -0.508907
v -0.257030 0.176582 0.508907
v -0.531886 0.423574 0.129603
v -0.783144 0.327555 0.011922
v -0.512585 0.306064 0.409012
v -0.783144 0.240038 0.201391
v -0.396844 0.423574 0.304577
v 0.783144 0.198730 0.157579
v 0.028913 0.203321 0.508907
v 0.232518 -0.000001 -0.335816
v 0.358776 0.047332 -0.364421
v 0.783144 0.139658 -0.137054
v -0.265385 0.124744 0.477521
v -0.783144 0.076576 0.119413
v 0.783144 0.100372 0.090967
v 0.403516 -0.000001 -0.063934
v 0.011023 0.087634 0.438820
v -0.168514 -0.000001 0.226458
v -0.783144 0.183479 -0.196334
v -0.520493 0.138230 -0.439752
v -0.311220 -0.000001 -0.424818
v -0.645132 -0.000001 0.002243
vt 0.4575 0.8891
vt 0.4588 0.8960
vt 0.4525 0.8962
vt 0.4516 0.9156
vt 0.4864 0.8941
vt 0.4829 0.9045
vt 0.4795 0.8891
vt 0.4424 0.9241
vt 0.4294 0.9075
vt 0.3920 0.9650
vt 0.3876 0.9523
vt 0.3982 0.9640
vt 0.4789 0.9402
vt 0.4857 0.9219
vt 0.4876 0.9402
vt 0.3861 0.9235
vt 0.3917 0.9208
vt 0.3934 0.9348
vt 0.4084 0.9006
vt 0.4004 0.9001
vt 0.4141 0.8938
vt 0.4355 0.8891
vt 0.4614 0.8918
vt 0.4700 0.9002
vt 0.4700 0.9130
vt 0.4680 0.8952
vt 0.4633 0.9109
vt 0.4081 0.9345
vt 0.4520 0.9366
vt 0.4422 0.9388
vt 0.3958 0.8938
vt 0.3852 0.9186
vt 0.4741 0.9086
vt 0.4799 0.9245
vt 0.4366 0.9610
vt 0.4379 0.9911
vt 0.4294 0.9613
vt 0.4311 0.9516
vt 0.4343 0.9515
vt 0.4651 0.9269
vt 0.4552 0.9366
vt 0.4537 0.9445
vt 0.4472 0.9388
vt 0.4775 0.9367
vt 0.4700 0.9145
vt 0.4537 0.9803
vt 0.4467 0.9574
vt 0.4550 0.9197
vt 0.4294 0.9075
vt 0.4294 0.9382
vt 0.3982 0.9472
vt 0.3869 0.9418
vt 0.4767 0.8906
vt 0.3918 0.8967
vt 0.4052 0.8891
vt 0.4876 0.9140
vt 0.4259 0.8984
vt 0.3852 0.9553
vt 0.4048 0.9418
vt 0.4442 0.9915
vt 0.4701 0.9360
vn -0.3682 -0.6312 -0.6827
vn 0.1127 -0.7166 -0.6884
vn -0.4995 -0.3884 0.7744
vn 0.0000 -1.0000 -0.0000
vn 1.0000 -0.0000 0.0000
vn -0.6048 0.3465 -0.7170
vn 0.1059 0.9524 -0.2858
vn -0.4774 0.7977 0.3685
vn -0.3690 -0.5709 -0.7334
vn 0.0000 0.0000 -1.0000
vn 0.3132 -0.9359 -0.1612
vn -0.2549 0.9408 -0.2234
vn -1.0000 -0.0000 0.0000
vn 0.3571 -0.5238 0.7734
vn 0.0489 -0.5231 0.8509
vn 0.4919 -0.1477 -0.8581
vn -0.1794 -0.9069 0.3814
vn -0.4899 -0.7831 -0.3831
vn 0.1395 -0.9514 0.2747
vn 0.3060 -0.9324 -0.1924
vn 0.0000 1.0000 0.0000
vn 0.2239 0.8541 0.4695
vn 0.5074 0.8594 -0.0639
vn -0.0618 -0.9031 0.4249
vn -0.6237 -0.7404 -0.2507
vn -0.0577 0.6168 0.7850
vn -0.1794 -0.9068 0.3814
vn 0.2190 0.8567 0.4671
vn 0.5219 0.8522 0.0377
vn 0.0302 0.6472 0.7617
s off
f 30/1/1 11/2/1 31/3/1
f 11/2/2 20/4/2 31/3/2
f 15/5/3 16/6/3 12/7/3
f 20/4/4 26/8/4 28/9/4
f 25/10/5 5/11/5 18/12/5
f 9/13/6 7/14/6 8/15/6
f 1/16/7 2/17/7 4/18/7
f 17/19/8 13/20/8 15/21/8
f 31/3/4 28/9/4 32/22/4
f 30/1/9 9/23/9 11/2/9
f 1/24/10 4/25/10 8/26/10
f 10/27/10 11/2/10 9/23/10
f 3/28/7 4/18/7 2/17/7
f 26/8/11 22/29/11 25/30/11
f 13/20/12 2/17/12 14/31/12
f 1/16/12 8/32/12 2/17/12
f 24/33/13 7/14/13 29/34/13
f 27/35/14 18/36/14 19/37/14
f 27/35/15 12/38/15 23/39/15
f 10/27/16 6/40/16 5/41/16
f 32/42/17 23/39/17 24/43/17
f 30/44/18 32/45/18 29/34/18
f 26/46/19 27/35/19 28/47/19
f 20/4/20 21/48/20 26/8/20
f 17/19/21 2/17/21 13/20/21
f 20/4/2 10/27/2 21/48/2
f 3/28/22 19/49/22 18/50/22
f 3/51/23 5/11/23 6/52/23
f 28/47/24 27/35/24 23/39/24
f 16/6/3 23/53/3 12/7/3
f 32/45/25 24/33/25 29/34/25
f 7/54/12 2/17/12 8/32/12
f 13/20/8 16/55/8 15/21/8
f 9/13/6 30/44/6 29/34/6
f 16/6/13 14/56/13 7/14/13
f 21/48/16 5/41/16 22/29/16
f 10/27/10 8/26/10 4/25/10
f 17/19/26 12/57/26 19/49/26
f 25/10/5 22/58/5 5/11/5
f 9/13/6 29/34/6 7/14/6
f 31/3/4 20/4/4 28/9/4
f 3/28/7 6/59/7 4/18/7
f 26/8/20 21/48/20 22/29/20
f 24/33/13 16/6/13 7/14/13
f 27/35/14 25/60/14 18/36/14
f 27/35/15 19/37/15 12/38/15
f 10/27/16 4/25/16 6/40/16
f 32/42/27 28/47/27 23/39/27
f 30/44/18 31/61/18 32/45/18
f 26/46/19 25/60/19 27/35/19
f 17/19/21 3/28/21 2/17/21
f 20/4/2 11/2/2 10/27/2
f 3/28/28 17/19/28 19/49/28
f 3/51/29 18/12/29 5/11/29
f 16/6/3 24/33/3 23/53/3
f 7/54/12 14/31/12 2/17/12
f 13/20/8 14/31/8 16/55/8
f 21/48/16 10/27/16 5/41/16
f 10/27/10 9/23/10 8/26/10
f 17/19/30 15/21/30 12/57/30
