# Blender v2.77 (sub 0) OBJ File: 'LowPoly_Level_Kit_Rocks.blend'
# www.blender.org
g Rocks_Round_l_03
v -0.254251 0.113988 -0.536410
v -1.268465 0.113988 -0.052047
v -0.885978 0.113988 -0.715501
v -1.355299 0.113988 -0.219388
v -0.510410 0.273117 -0.833429
v -0.992215 0.470789 -0.888322
v -0.879783 1.191792 -0.765172
v -1.042217 0.830724 -0.845199
v -0.106808 0.113988 -0.365449
v -0.305383 0.113988 0.352220
v -0.562016 1.191792 -0.710216
v -0.404883 0.996928 -0.711069
v -0.022856 0.780787 -0.268106
v -0.119902 0.963193 0.192254
v -0.068543 1.014028 0.037190
v -0.284460 1.191792 -0.117112
v -0.993865 1.191792 0.228519
v -0.416901 0.980270 0.448397
v -0.691416 1.191792 0.282052
v -0.548940 0.113988 0.562272
v -0.958810 0.113988 0.307000
v -0.621082 0.599045 0.624490
v -0.732801 0.663095 0.569059
v -1.372708 0.563470 -0.560172
v -1.286151 0.823588 -0.634821
v -1.155677 1.191792 -0.522244
v -1.138482 1.191792 -0.050177
v -1.400395 0.464436 -0.387133
v -0.357232 0.108709 0.219988
v 0.393704 0.108709 0.480713
v -0.054687 0.873377 -0.118562
v -0.199210 0.108709 0.110255
v 0.474526 0.693056 0.290110
v 0.563314 0.332833 0.495441
v -0.576292 0.108709 1.232322
v 0.243848 1.554736 0.766213
v -0.109138 1.200753 1.232682
v -0.695858 1.499487 1.139990
v -0.523125 1.582742 1.167395
v -1.055561 1.527455 0.862218
v -0.834134 0.108709 1.033210
v -0.667706 0.108709 0.579279
v -1.123066 0.903108 0.810089
v -1.126290 1.008005 0.662377
v 0.474140 0.688791 0.794919
v -0.177556 0.108709 1.270559
v 0.037380 0.677587 1.268021
v -0.093622 0.108709 1.178760
v 0.286759 1.442061 0.201925
v 0.216071 1.710974 0.681685
v -0.482439 1.754845 1.006217
v -1.018090 1.753035 0.640011
v -1.018014 1.760735 0.553072
v -0.114492 1.798161 0.782460
v -1.028348 1.711372 0.460854
v -1.068913 1.449174 0.411404
v -0.401769 1.168823 0.016898
v -0.574437 1.520627 0.192440
v 1.094117 0.073431 -0.931147
v 0.055513 -0.085250 -0.061170
v 0.300102 0.009000 -0.952884
v -0.097295 -0.083893 -0.231472
v 0.677294 0.377498 -1.177006
v 0.064160 0.712732 -1.065498
v 0.296929 0.299324 -1.154594
v -0.040426 1.414075 -0.941204
v 1.318954 0.079226 -0.774658
v 1.306159 0.003585 0.125820
v 0.719027 1.810510 -0.946673
v 1.337175 1.398843 -0.576544
v 1.334426 1.714116 0.021866
v 1.338712 1.831846 -0.166905
v 1.062444 1.693181 0.413415
v 1.085423 -0.041230 0.444624
v 0.527709 -0.073080 0.267483
v 0.940168 0.903041 0.618355
v 0.781934 1.019787 0.597129
v 0.880762 2.138913 -0.040063
v 0.830890 1.918447 0.368670
v 0.410667 1.724204 0.439089
v 0.256562 1.731872 0.304893
v 0.190148 1.742760 0.231680
v 0.077513 1.966814 -0.861781
v 0.601979 2.008795 -0.903439
v 1.014442 2.162446 -0.253108
v 0.996157 2.164440 -0.232076
v 1.001657 2.157684 -0.273265
v 1.013020 2.162601 -0.251472
v 0.635344 2.133116 -0.217251
v -0.116301 2.005808 -0.537741
v -0.209001 1.067564 -0.266152
v -0.259572 0.814273 -0.604132
v -0.288961 0.585937 -0.392921
v -0.261867 0.620585 -0.360002
v -0.225721 1.438300 -0.255856
v -0.283682 1.348840 -0.589286
v -0.196826 1.930506 -0.447017
v -0.171407 1.802033 -0.166891
vt 0.3403 0.8099
vt 0.3592 0.8108
vt 0.3591 0.8158
vt 0.3268 0.6611
vt 0.3407 0.6561
vt 0.3301 0.6784
vt 0.3407 0.7014
vt 0.3287 0.6975
vt 0.3173 0.6767
vt 0.3264 0.8247
vt 0.2957 0.8172
vt 0.3291 0.8140
vt 0.2304 0.8422
vt 0.2262 0.8568
vt 0.2154 0.8552
vt 0.3337 0.7968
vt 0.3352 0.7893
vt 0.1923 0.7909
vt 0.1939 0.7982
vt 0.1858 0.8023
vt 0.1539 0.7892
vt 0.1718 0.7802
vt 0.3126 0.6543
vt 0.3114 0.6751
vt 0.3083 0.6658
vt 0.3023 0.8325
vt 0.2940 0.8236
vt 0.3346 0.7738
vt 0.3592 0.7770
vt 0.1734 0.8246
vt 0.1613 0.8231
vt 0.1603 0.7789
vt 0.6440 0.9141
vt 0.6426 0.9005
vt 0.6600 0.9015
vt 0.6871 0.9418
vt 0.6737 0.9675
vt 0.6725 0.9527
vt 0.1517 0.8093
vt 0.3122 0.8464
vt 0.3045 0.8409
vt 0.5515 0.9882
vt 0.5402 0.9886
vt 0.5367 0.9820
vt 0.5954 0.9547
vt 0.5830 0.9435
vt 0.5990 0.9376
vt 0.5770 0.9156
vt 0.5789 0.9104
vt 0.5859 0.9276
vt 0.5433 0.9587
vt 0.5649 0.9734
vt 0.5461 0.9641
vt 0.7149 0.9594
vt 0.7306 0.9806
vt 0.7231 0.9814
vt 0.5552 0.8950
vt 0.5574 0.8992
vt 0.5375 0.8980
vt 0.6390 0.9348
vt 0.6509 0.9224
vt 0.6547 0.9431
vt 0.5907 0.9584
vt 0.5990 0.9692
vt 0.5695 0.9500
vt 0.5753 0.9237
vt 0.5770 0.9376
vt 0.5728 0.9368
vt 0.5629 0.8943
vt 0.5241 0.9216
vt 0.5287 0.9249
vt 0.5270 0.9309
vt 0.5385 0.9321
vt 0.5090 0.9616
vt 0.5286 0.9725
vt 0.5137 0.9734
vt 0.5665 0.9864
vt 0.5744 0.9802
vt 0.5835 0.9714
vt 0.5859 0.9774
vt 0.5921 0.9768
vt 0.5892 0.9778
vt 0.7315 0.9648
vt 0.7430 0.9763
vt 0.7342 0.9755
vt 0.7275 0.9438
vt 0.7430 0.9482
vt 0.7403 0.9544
vt 0.7422 0.9270
vt 0.7440 0.9339
vt 0.7364 0.9382
vt 0.6720 0.9737
vt 0.6818 0.9841
vt 0.7065 0.9445
vt 0.7069 0.9566
vt 0.7269 0.9245
vt 0.7191 0.9277
vt 0.6738 0.9067
vt 0.6811 0.9042
vt 0.6752 0.9192
vt 0.6900 0.9362
vt 0.6924 0.9401
vt 0.6766 0.9418
vt 0.7117 0.9113
vt 0.7117 0.9259
vt 0.6433 0.9226
vt 0.6435 0.9153
vt 0.6885 0.9041
vt 0.6615 0.9046
vt 0.7185 0.9267
vt 0.7187 0.9173
vt 0.3220 0.6936
vt 0.3139 0.8578
vt 0.3043 0.8579
vt 0.6755 0.9215
vt 0.1939 0.8119
vt 0.3176 0.6504
vt 0.5108 0.9215
vt 0.7084 0.9841
vt 0.7294 0.9144
vt 0.7419 0.9137
vt 0.7329 0.9005
vt 0.7437 0.9019
vt 0.6757 0.9265
vt 0.6720 0.9361
vt 0.5312 0.9462
vt 0.5366 0.9569
vt 0.3544 0.8251
vt 0.5064 0.9320
vt 0.5080 0.9294
vt 0.5783 0.8972
vt 0.5928 0.8943
vt 0.5430 0.9312
vt 0.5419 0.9257
vt 0.5539 0.9194
vt 0.2351 0.8410
vt 0.2212 0.8248
vt 0.2383 0.8274
vt 0.3156 0.6867
vt 0.6112 0.9138
vt 0.6113 0.9254
vt 0.5980 0.9317
vt 0.5367 0.9160
vt 0.5043 0.9344
vt 0.5091 0.9528
vt 0.2383 0.8525
vt 0.5385 0.9548
vt 0.5665 0.9756
vt 0.3240 0.8449
vt 0.3257 0.8579
vt 0.6974 0.9015
vt 0.6360 0.9111
vt 0.6337 0.9164
vt 0.5665 0.9635
vt 0.5473 0.9376
vt 0.5612 0.9425
vt 0.6720 0.9317
vt 0.6678 0.9389
vt 0.6714 0.9277
vt 0.6523 0.9438
vt 0.6472 0.9446
vt 0.3453 0.7619
vt 0.6434 0.9145
vt 0.6434 0.9144
vt 0.7116 0.9060
vt 0.6981 0.9005
vt 0.6720 0.9155
vt 0.7117 0.9382
vt 0.6339 0.9319
vt 0.7162 0.9765
vt 0.7292 0.9019
vt 0.7205 0.9103
vt 0.1820 0.7763
vt 0.1787 0.8265
vt 0.5770 0.9114
vt 0.3340 0.8237
vt 0.2061 0.8225
vt 0.7113 0.9410
vt 0.6113 0.9043
vt 0.3591 0.7642
vt 0.7132 0.9620
vt 0.7204 0.9025
vn 0.7573 0.0000 -0.6531
vn 0.1618 -0.8050 -0.5708
vn -0.6692 -0.3891 -0.6331
vn -0.0856 -0.4549 -0.8864
vn -0.8826 0.1057 0.4580
vn -0.1528 0.4807 0.8635
vn 0.9516 -0.1583 0.2633
vn 0.3938 0.8269 0.4015
vn -0.0000 1.0000 0.0000
vn 0.1687 0.1403 -0.9756
vn 0.6531 -0.0000 0.7573
vn 0.6659 0.5115 -0.5432
vn 0.8206 0.0211 0.5711
vn -0.9453 0.3244 0.0344
vn 0.5053 -0.3300 -0.7974
vn -0.8600 -0.4013 -0.3153
vn -0.1564 -0.0007 0.9877
vn -0.5650 -0.1367 -0.8137
vn -0.0909 0.1606 -0.9828
vn 0.9804 0.1937 0.0359
vn -0.3223 0.8490 0.4186
vn -0.9908 0.0994 0.0922
vn -0.7195 -0.3094 -0.6217
vn 0.7114 -0.2659 0.6505
vn 0.3700 0.4921 0.7880
vn -0.4204 0.6712 0.6106
vn 0.4126 0.5688 0.7115
vn 0.0523 0.4663 -0.8831
vn 0.6236 0.0646 -0.7791
vn -0.4217 0.2306 -0.8769
vn -0.9878 0.1555 0.0129
vn 0.0686 -0.5687 -0.8197
vn 0.5655 0.1148 -0.8167
vn -0.8020 -0.3467 -0.4864
vn 0.9998 -0.0157 0.0129
vn -0.7435 -0.0520 0.6667
vn 0.0497 0.2435 0.9686
vn -0.5655 -0.1148 0.8167
vn -0.0828 0.9932 0.0822
vn -0.9922 0.1023 0.0718
vn -0.6804 -0.5838 -0.4430
vn -0.6531 0.0000 -0.7573
vn -0.6513 -0.1777 0.7377
vn 0.7308 0.5908 -0.3420
vn -0.4198 0.6710 0.6112
vn -0.9817 -0.0494 0.1839
vn -0.8177 0.2490 -0.5190
vn -0.0922 0.9806 -0.1732
vn 0.0850 0.8744 -0.4776
vn -0.8662 -0.4161 -0.2766
vn -0.0635 0.9941 0.0880
vn -0.6112 -0.0000 0.7915
vn 0.5427 -0.4570 0.7048
vn -0.5196 -0.1843 0.8343
vn -0.0954 0.0405 0.9946
vn 0.9706 0.2408 0.0028
vn 0.5001 -0.3303 -0.8005
vn -0.9912 0.1325 0.0063
vn -0.7779 0.0204 0.6281
vn -0.2844 -0.2156 0.9341
vn 0.4079 0.5518 0.7274
vn 0.3821 0.5584 0.7364
vn -0.9886 0.1469 0.0322
vn -0.5995 0.4206 -0.6809
vn 0.5810 0.6846 0.4402
vn -0.5808 -0.3441 -0.7377
vn -0.2564 0.9362 -0.2405
vn -0.0922 0.9806 -0.1733
vn -0.0923 0.9806 -0.1732
vn -0.1286 0.0547 0.9902
vn -0.8206 -0.0211 -0.5711
vn -0.9836 0.1124 0.1408
vn 0.5810 0.6846 0.4401
vn -0.8688 0.3918 0.3027
vn 0.7098 0.2434 0.6610
vn 0.9660 0.2576 0.0220
vn -0.4893 -0.1839 -0.8525
vn -0.6572 -0.0168 0.7535
vn -0.4198 0.6714 0.6108
vn -0.6368 -0.4814 -0.6024
vn 0.5023 -0.3336 -0.7977
vn -0.9864 0.1645 0.0006
vn -0.7571 0.0229 0.6529
vn -0.6339 -0.1711 -0.7542
vn 0.2589 0.9200 -0.2941
vn 0.7550 -0.3902 0.5271
vn 0.6974 0.2082 0.6858
vn 0.9699 0.2435 0.0028
s off
f 13/1/1 9/2/1 1/3/1
f 5/4/2 1/5/2 3/6/2
f 3/6/3 4/7/3 28/8/3
f 5/4/4 3/6/4 6/9/4
f 27/10/5 2/11/5 17/12/5
f 23/13/6 19/14/6 17/15/6
f 15/16/7 14/17/7 13/1/7
f 14/18/8 15/19/8 16/20/8
f 16/20/9 27/21/9 19/22/9
f 11/23/10 8/24/10 7/25/10
f 28/26/5 4/27/5 2/11/5
f 18/28/11 10/29/11 14/17/11
f 11/30/9 7/31/9 16/20/9
f 27/21/9 17/32/9 19/22/9
f 87/33/12 70/34/12 69/35/12
f 76/36/13 71/37/13 73/38/13
f 16/20/9 7/31/9 26/39/9
f 25/40/14 24/41/14 28/26/14
f 33/42/15 34/43/15 30/44/15
f 43/45/16 42/46/16 41/47/16
f 39/48/17 38/49/17 37/50/17
f 29/51/18 31/52/18 32/53/18
f 69/54/19 64/55/19 66/56/19
f 50/57/20 36/58/20 49/59/20
f 79/60/21 89/61/21 82/62/21
f 44/63/22 43/45/22 40/64/22
f 29/65/23 42/46/23 44/63/23
f 47/66/24 46/67/24 48/68/24
f 36/58/25 50/57/25 54/69/25
f 38/70/26 39/71/26 51/72/26
f 51/72/27 39/71/27 37/73/27
f 57/74/28 49/75/28 31/76/28
f 33/42/29 31/52/29 49/77/29
f 58/78/30 56/79/30 55/80/30
f 56/79/31 52/81/31 53/82/31
f 63/83/32 61/84/32 65/85/32
f 70/86/33 67/87/33 59/88/33
f 63/83/32 59/88/32 61/84/32
f 64/89/34 65/90/34 61/91/34
f 65/85/19 64/55/19 63/83/19
f 72/92/35 71/37/35 70/93/35
f 76/36/13 74/94/13 68/95/13
f 92/96/34 61/91/34 93/97/34
f 98/98/36 95/99/36 82/100/36
f 77/101/37 76/102/37 73/103/37
f 60/104/38 75/105/38 77/101/38
f 89/61/39 78/106/39 86/107/39
f 91/108/36 82/100/36 95/99/36
f 69/35/12 84/109/12 87/33/12
f 92/96/40 94/110/40 91/111/40
f 28/8/41 24/112/41 3/6/41
f 25/40/42 8/113/42 6/114/42
f 91/108/43 77/101/43 81/115/43
f 13/1/7 10/29/7 9/2/7
f 16/20/44 15/19/44 13/116/44
f 11/23/10 12/117/10 8/24/10
f 51/72/45 40/118/45 38/70/45
f 70/93/35 68/95/35 67/119/35
f 91/111/46 96/120/46 92/96/46
f 66/121/47 90/122/47 83/123/47
f 84/109/48 89/61/48 87/33/48
f 80/124/37 73/103/37 79/125/37
f 49/75/49 54/126/49 50/127/49
f 5/128/1 13/1/1 1/3/1
f 43/45/50 44/63/50 42/46/50
f 53/129/51 52/130/51 51/72/51
f 38/49/52 40/131/52 43/132/52
f 30/133/53 34/134/53 45/135/53
f 22/136/54 21/137/54 20/138/54
f 6/9/42 24/112/42 25/139/42
f 35/140/55 46/141/55 47/142/55
f 34/134/56 33/143/56 45/135/56
f 32/53/57 33/42/57 30/44/57
f 40/64/58 56/79/58 44/63/58
f 55/144/49 53/129/49 58/145/49
f 17/15/59 21/137/59 23/13/59
f 75/105/60 76/102/60 77/101/60
f 18/146/6 23/13/6 22/136/6
f 37/73/61 36/147/61 54/126/61
f 54/126/62 51/72/62 37/73/62
f 57/74/28 58/145/28 49/75/28
f 58/78/30 57/148/30 56/79/30
f 53/82/63 55/80/63 56/79/63
f 8/113/64 26/149/64 7/150/64
f 94/151/36 60/104/36 91/108/36
f 77/101/43 80/124/43 81/115/43
f 43/132/52 35/140/52 38/49/52
f 72/152/65 86/107/65 71/153/65
f 57/154/66 44/155/66 56/156/66
f 97/157/21 98/158/21 90/159/21
f 82/62/21 81/160/21 79/60/21
f 80/161/21 79/60/21 81/160/21
f 22/162/11 10/29/11 18/28/11
f 58/145/67 51/72/67 54/126/67
f 89/61/48 86/107/48 87/33/48
f 88/163/68 85/164/68 87/33/68
f 62/165/36 94/151/36 93/166/36
f 83/167/48 90/159/48 89/61/48
f 86/107/69 88/163/69 87/33/69
f 98/158/21 89/61/21 90/159/21
f 25/40/14 27/10/14 26/149/14
f 35/140/70 37/50/70 38/49/70
f 62/168/34 93/97/34 61/91/34
f 92/96/34 64/89/34 61/91/34
f 71/153/65 79/60/65 73/169/65
f 83/170/19 69/54/19 66/56/19
f 66/121/71 92/96/71 96/120/71
f 97/171/47 90/122/47 96/120/47
f 63/83/33 70/86/33 59/88/33
f 91/108/36 81/115/36 82/100/36
f 95/172/72 97/171/72 96/120/72
f 48/68/24 45/135/24 47/66/24
f 86/107/65 78/106/65 71/153/65
f 72/152/73 85/164/73 88/163/73
f 18/173/8 16/20/8 19/22/8
f 87/33/12 85/164/12 72/152/12
f 92/96/74 93/97/74 94/110/74
f 16/20/44 12/174/44 11/30/44
f 6/9/10 12/117/10 5/4/10
f 45/135/75 37/175/75 47/66/75
f 45/135/76 49/59/76 36/58/76
f 27/10/5 28/26/5 2/11/5
f 16/20/9 26/39/9 27/21/9
f 87/33/12 72/152/12 70/34/12
f 76/36/13 68/95/13 71/37/13
f 29/51/77 57/154/77 31/52/77
f 69/54/19 63/83/19 64/55/19
f 79/60/21 78/106/21 89/61/21
f 91/108/78 60/104/78 77/101/78
f 13/1/7 14/17/7 10/29/7
f 51/72/79 52/130/79 40/118/79
f 70/93/35 71/37/35 68/95/35
f 91/111/46 95/172/46 96/120/46
f 66/121/47 96/120/47 90/122/47
f 84/109/48 83/167/48 89/61/48
f 80/124/37 77/101/37 73/103/37
f 49/75/49 58/145/49 54/126/49
f 5/128/1 12/176/1 13/1/1
f 22/136/54 23/13/54 21/137/54
f 6/9/80 3/6/80 24/112/80
f 32/53/81 31/52/81 33/42/81
f 40/64/82 52/81/82 56/79/82
f 17/15/83 2/177/83 21/137/83
f 75/105/60 74/178/60 76/102/60
f 18/146/6 19/14/6 23/13/6
f 8/113/64 25/40/64 26/149/64
f 43/132/52 41/179/52 35/140/52
f 72/152/65 88/163/65 86/107/65
f 57/154/84 29/51/84 44/155/84
f 22/162/11 20/180/11 10/29/11
f 58/145/85 53/129/85 51/72/85
f 62/165/36 60/104/36 94/151/36
f 98/158/21 82/62/21 89/61/21
f 25/40/14 28/26/14 27/10/14
f 35/140/55 47/142/55 37/50/55
f 71/153/65 78/106/65 79/60/65
f 83/170/19 84/181/19 69/54/19
f 66/121/71 64/89/71 92/96/71
f 63/83/33 69/54/33 70/86/33
f 95/172/72 98/182/72 97/171/72
f 48/68/86 30/133/86 45/135/86
f 18/173/8 14/18/8 16/20/8
f 16/20/44 13/116/44 12/174/44
f 6/9/10 8/24/10 12/117/10
f 45/135/87 36/58/87 37/175/87
f 45/135/88 33/143/88 49/59/88
