# Blender v2.77 (sub 0) OBJ File: 'LowPoly_Level_Kit_Rocks.blend'
# www.blender.org
g Rock_Round_m_04
v 0.365857 -0.002390 0.329012
v 0.356499 -0.002375 -0.046833
v 0.289221 0.061126 -0.465795
v 0.248405 -0.002208 -0.381622
v 0.019692 -0.001854 -0.518863
v 0.081954 0.067337 -0.600262
v -0.220431 0.507934 0.033126
v 0.406866 0.141061 -0.367548
v 0.341297 0.228463 -0.390967
v 0.350401 0.349155 0.101757
v 0.450242 0.214657 0.132214
v 0.208493 0.406453 -0.434839
v 0.257800 -0.002223 0.426141
v -0.182526 0.489164 0.277451
v -0.550537 0.314883 0.121677
v -0.452799 0.444186 0.053853
v 0.420822 0.131035 0.375798
v 0.279508 0.363068 0.262456
v -0.022232 0.436572 0.530064
v -0.504298 0.155650 0.434253
v -0.355586 0.257505 0.607256
v -0.458843 0.406628 0.203146
v -0.056805 0.093273 0.705186
v 0.003263 0.092550 0.692053
v -0.251592 0.264939 0.684340
v 0.106381 0.183211 0.635079
v -0.534080 0.180950 -0.133077
v -0.532683 0.109152 0.264377
v -0.147170 -0.001596 0.504935
v -0.145584 0.045004 0.611473
v -0.407701 0.040260 0.426497
v -0.410503 -0.001189 0.330810
v -0.389020 0.085242 -0.324797
v -0.140574 -0.001606 -0.421452
v -0.237347 -0.001457 -0.253804
v -0.427440 0.078338 -0.231357
v -0.358910 -0.001268 -0.043207
v -0.001030 0.187756 -0.625441
v 0.060348 0.446298 -0.412948
v -0.387926 0.364801 -0.247006
v -0.425625 0.168862 -0.355078
v -0.195407 0.358389 -0.444011
v -0.178052 0.239176 -0.549997
v -0.501603 0.321792 -0.002941
vt 0.4265 0.9041
vt 0.4206 0.9033
vt 0.4219 0.9004
vt 0.4114 0.8985
vt 0.4254 0.9157
vt 0.4053 0.9024
vt 0.4018 0.9088
vt 0.4419 0.9579
vt 0.4352 0.9569
vt 0.4419 0.9537
vt 0.4265 0.9297
vt 0.4224 0.9335
vt 0.4552 0.9102
vt 0.4487 0.8962
vt 0.4618 0.9051
vt 0.4693 0.9479
vt 0.4743 0.9588
vt 0.4671 0.9631
vt 0.4127 0.9442
vt 0.4103 0.9447
vt 0.4068 0.9412
vt 0.4687 0.9175
vt 0.4768 0.9228
vt 0.4750 0.9293
vt 0.4731 0.9007
vt 0.4643 0.8991
vt 0.4687 0.8953
vt 0.3980 0.9421
vt 0.3921 0.9355
vt 0.3962 0.9347
vt 0.4768 0.9053
vt 0.4735 0.9082
vt 0.4135 0.8957
vt 0.4099 0.8953
vt 0.4386 0.9376
vt 0.4306 0.9306
vt 0.4355 0.9202
vt 0.4680 0.9132
vt 0.4654 0.9050
vt 0.4630 0.9157
vt 0.4647 0.9211
vt 0.3955 0.9067
vt 0.4265 0.9140
vt 0.4268 0.9197
vt 0.3908 0.9290
vt 0.4067 0.9371
vt 0.3960 0.9309
vt 0.4030 0.8985
vt 0.3938 0.9059
vt 0.4539 0.9366
vt 0.4584 0.9161
vt 0.4600 0.9342
vt 0.4276 0.9511
vt 0.4419 0.9452
vt 0.4739 0.9445
vt 0.4749 0.9427
vt 0.4749 0.9737
vt 0.4705 0.9822
vt 0.4648 0.9695
vt 0.4762 0.9021
vt 0.4365 0.9109
vt 0.4304 0.8983
vt 0.3942 0.9102
vt 0.4729 0.9641
vt 0.4022 0.9448
vt 0.3974 0.9169
vt 0.3899 0.9144
vt 0.4398 0.9409
vt 0.4265 0.9407
vt 0.4311 0.9376
vt 0.4479 0.9362
vt 0.4424 0.9010
vt 0.4630 0.9144
vt 0.4279 0.9456
vt 0.4722 0.9368
vt 0.4342 0.8953
vt 0.4630 0.9330
vt 0.4704 0.9368
vt 0.4630 0.9452
vn 0.6654 -0.7148 -0.2152
vn -0.0015 -1.0000 -0.0000
vn 0.5482 0.1932 -0.8137
vn 0.5606 0.6132 0.5565
vn 0.5468 -0.3889 0.7414
vn 0.0761 -0.9139 0.3986
vn -0.9871 0.0241 0.1583
vn -0.6253 0.4657 -0.6262
vn -0.5096 -0.4748 0.7176
vn -0.7978 -0.4809 -0.3636
vn -0.4581 -0.4731 -0.7525
vn -0.2772 0.9126 -0.3006
vn -0.8307 0.4689 -0.3002
vn -0.8285 0.4709 -0.3029
vn -0.8001 0.4783 0.3620
vn -0.3996 -0.8874 -0.2299
vn -0.2387 0.9440 0.2278
vn -0.7236 -0.6254 0.2921
vn -0.2594 -0.8834 0.3903
vn 0.8097 0.5663 -0.1537
vn 0.5376 0.1991 -0.8194
vn 0.2045 0.3434 0.9166
vn 0.2883 -0.8271 -0.4825
vn 0.9249 -0.3794 -0.0244
vn -0.7568 0.6405 0.1305
vn -0.3597 0.8418 0.4025
vn 0.5888 -0.4725 0.6558
vn 0.6414 -0.2808 0.7140
vn -0.5000 -0.4799 0.7209
vn -0.7109 -0.7022 -0.0382
vn -0.9953 -0.0960 -0.0138
vn -0.1316 0.6479 -0.7503
vn 0.2641 0.9639 0.0331
vn -0.6828 -0.7193 -0.1275
vn 0.7451 0.5980 0.2953
vn 0.0536 0.6264 -0.7776
vn 0.9266 -0.3757 -0.0171
vn -0.3589 0.8419 0.4030
vn 0.6258 0.5478 0.5552
vn -0.7818 0.4931 0.3817
vn -0.3138 0.9417 0.1210
vn -0.8301 0.4701 -0.2999
vn -0.8189 0.3899 -0.4213
vn -0.6408 -0.7626 -0.0882
vn 0.7415 0.6125 0.2741
vn 0.9246 -0.3803 -0.0230
vn 0.2245 0.4682 0.8546
s off
f 8/1/1 4/2/1 3/3/1
f 5/4/2 4/2/2 2/5/2
f 34/6/2 2/5/2 35/7/2
f 8/1/1 2/5/1 4/2/1
f 8/8/3 3/9/3 9/10/3
f 2/5/2 1/11/2 13/12/2
f 18/13/4 26/14/4 17/15/4
f 26/16/5 13/17/5 17/18/5
f 24/19/6 23/20/6 30/21/6
f 15/22/7 28/23/7 20/24/7
f 41/25/8 42/26/8 43/27/8
f 21/28/9 20/29/9 31/30/9
f 36/31/10 27/32/10 41/25/10
f 6/33/11 5/4/11 38/34/11
f 42/35/12 40/36/12 7/37/12
f 44/38/13 27/32/13 15/22/13
f 40/39/14 44/38/14 16/40/14
f 20/24/15 22/41/15 15/22/15
f 33/42/16 34/6/16 35/7/16
f 22/43/17 7/37/17 16/44/17
f 28/45/18 31/30/18 20/29/18
f 34/6/2 5/4/2 2/5/2
f 29/46/19 31/30/19 32/47/19
f 43/48/11 33/42/11 41/49/11
f 12/50/20 10/51/20 9/52/20
f 6/53/21 12/54/21 9/10/21
f 24/55/22 26/16/22 23/56/22
f 3/3/23 5/4/23 6/33/23
f 2/57/24 8/58/24 11/59/24
f 16/40/25 15/22/25 22/41/25
f 33/60/10 36/31/10 41/25/10
f 14/61/26 22/43/26 21/62/26
f 35/7/16 36/63/16 33/42/16
f 1/64/27 17/18/27 13/17/27
f 26/16/28 24/55/28 13/17/28
f 30/21/6 29/46/6 24/19/6
f 13/12/6 24/19/6 29/46/6
f 21/28/29 30/21/29 25/65/29
f 37/66/30 27/67/30 36/63/30
f 15/22/31 27/32/31 28/23/31
f 2/5/2 29/46/2 35/7/2
f 30/21/29 23/20/29 25/65/29
f 39/68/32 43/69/32 42/70/32
f 7/37/33 10/51/33 39/71/33
f 29/46/2 32/47/2 37/66/2
f 37/66/2 35/7/2 29/46/2
f 40/39/14 27/32/14 44/38/14
f 37/66/34 28/45/34 27/67/34
f 19/72/33 18/13/33 14/61/33
f 10/51/33 12/50/33 39/71/33
f 7/37/33 14/61/33 18/13/33
f 11/73/35 18/13/35 17/15/35
f 43/48/11 5/4/11 34/6/11
f 3/9/21 6/53/21 9/10/21
f 39/68/36 12/54/36 38/74/36
f 1/64/37 11/59/37 17/18/37
f 26/16/22 25/75/22 23/56/22
f 19/72/38 21/62/38 25/76/38
f 16/44/12 7/37/12 40/36/12
f 39/71/12 42/35/12 7/37/12
f 10/51/20 8/77/20 9/52/20
f 18/13/39 19/72/39 26/14/39
f 41/25/8 40/39/8 42/26/8
f 20/24/40 21/78/40 22/41/40
f 22/43/41 14/61/41 7/37/41
f 28/45/18 32/47/18 31/30/18
f 29/46/19 30/21/19 31/30/19
f 43/48/11 34/6/11 33/42/11
f 6/53/21 38/74/21 12/54/21
f 3/3/23 4/2/23 5/4/23
f 16/40/42 44/38/42 15/22/42
f 35/7/16 37/66/16 36/63/16
f 21/28/29 31/30/29 30/21/29
f 2/5/2 13/12/2 29/46/2
f 39/68/32 38/74/32 43/69/32
f 7/37/33 18/13/33 10/51/33
f 40/39/43 41/25/43 27/32/43
f 37/66/44 32/47/44 28/45/44
f 11/73/45 10/51/45 18/13/45
f 43/48/11 38/34/11 5/4/11
f 1/64/46 2/57/46 11/59/46
f 26/16/47 19/79/47 25/75/47
f 19/72/38 14/61/38 21/62/38
f 10/51/20 11/73/20 8/77/20
