# Blender v2.77 (sub 0) OBJ File: 'LowPoly_Level_Kit_Rocks.blend'
# www.blender.org
g Rock_Round_m_13
v 0.091163 -0.006912 -0.500000
v -0.181425 -0.006912 0.500000
v -0.414383 -0.006912 -0.166696
v -0.599058 0.382967 0.353869
v -0.350587 -0.006912 0.459854
v -0.439884 0.893088 0.330126
v -0.599058 0.582245 0.329837
v -0.270540 0.125965 -0.500000
v -0.599058 0.291027 -0.196593
v -0.499232 0.107361 -0.315837
v -0.445340 0.893088 -0.200939
v -0.599058 0.591585 -0.135701
v 0.299356 -0.006912 -0.500000
v 0.680942 -0.006912 0.070915
v -0.215576 0.893088 -0.389752
v -0.121533 0.730370 -0.500000
v 0.417898 0.549885 -0.500000
v 0.680942 0.702200 -0.154961
v 0.603586 0.744649 -0.284220
v 0.365786 0.893088 -0.226367
v 0.179895 0.893088 0.477213
v 0.232951 0.808541 0.500000
v 0.680942 0.716460 0.206718
v 0.399440 0.893088 0.298239
v 0.680942 -0.006913 0.367513
v 0.255815 -0.006913 0.500000
v 0.680942 0.398125 0.455366
v 0.574946 0.451609 0.500000
vt 0.5764 0.9414
vt 0.5820 0.9272
vt 0.5835 0.9343
vt 0.5457 0.9555
vt 0.5485 0.9837
vt 0.5430 0.9857
vt 0.5667 0.9395
vt 0.5876 0.9573
vt 0.5835 0.9477
vt 0.5888 0.9416
vt 0.5674 0.8937
vt 0.5537 0.9107
vt 0.6068 0.9619
vt 0.6107 0.9414
vt 0.5186 0.9240
vt 0.5502 0.9092
vt 0.5339 0.9393
vt 0.5898 0.9723
vt 0.5537 0.9337
vt 0.5535 0.9111
vt 0.5263 0.9859
vt 0.5218 0.9780
vt 0.5321 0.9828
vt 0.5363 0.8972
vt 0.5187 0.8943
vt 0.5343 0.8937
vt 0.5296 0.9520
vt 0.5254 0.9450
vt 0.5407 0.9394
vt 0.5537 0.9043
vt 0.5537 0.9752
vt 0.5551 0.9688
vt 0.5617 0.9859
vt 0.6075 0.8964
vt 0.6116 0.9001
vt 0.6086 0.9079
vt 0.5665 0.9414
vt 0.5822 0.9445
vt 0.5824 0.9576
vt 0.5186 0.9634
vt 0.5194 0.9473
vt 0.5186 0.9301
vt 0.5543 0.9529
vt 0.5417 0.9394
vt 0.6116 0.9295
vt 0.6041 0.9361
vt 0.5858 0.9320
vt 0.5835 0.9093
vt 0.5907 0.9029
vt 0.6062 0.9868
vt 0.6060 0.9719
vt 0.5951 0.8937
vt 0.5469 0.8949
vt 0.5186 0.9086
vt 0.5792 0.8960
vt 0.5835 0.8987
vt 0.5610 0.9384
vt 0.5552 0.8974
vt 0.5485 0.9443
vt 0.5835 0.9859
vt 0.5877 0.9868
vn -0.3056 -0.8318 -0.4635
vn 0.0000 -0.0000 -1.0000
vn -0.8506 -0.5186 0.0866
vn -0.0000 -1.0000 -0.0000
vn -0.2293 0.1165 0.9663
vn -1.0000 0.0000 -0.0000
vn -0.6273 0.1546 -0.7633
vn 0.2913 -0.2028 0.9349
vn 0.2104 0.6288 -0.7486
vn 0.5405 0.5179 0.6630
vn 0.8187 -0.1743 -0.5472
vn 0.5233 0.8515 -0.0336
vn 1.0000 0.0000 0.0000
vn 0.0000 1.0000 0.0000
vn -0.8901 0.4558 0.0091
vn 0.0000 -0.0000 1.0000
s off
f 8/1/1 3/2/1 10/3/1
f 17/4/2 13/5/2 1/6/2
f 8/1/1 1/7/1 3/2/1
f 9/8/3 10/9/3 3/10/3
f 26/11/4 1/7/4 14/12/4
f 4/13/3 3/10/3 5/14/3
f 2/15/5 22/16/5 4/17/5
f 4/13/6 12/18/6 9/8/6
f 6/19/5 22/16/5 21/20/5
f 10/21/7 9/22/7 8/23/7
f 28/24/8 25/25/8 27/26/8
f 16/27/9 15/28/9 20/29/9
f 28/24/10 24/30/10 22/16/10
f 19/31/11 18/32/11 17/33/11
f 9/22/7 16/27/7 8/23/7
f 18/34/12 19/35/12 20/36/12
f 20/29/9 17/4/9 16/27/9
f 27/37/13 25/38/13 14/39/13
f 15/28/7 12/40/7 11/41/7
f 4/17/5 5/42/5 2/15/5
f 14/39/11 17/33/11 18/32/11
f 23/43/13 14/39/13 18/32/13
f 7/44/5 4/17/5 22/16/5
f 15/45/14 11/46/14 20/36/14
f 6/47/14 21/48/14 24/49/14
f 6/50/15 12/18/15 7/51/15
f 23/52/12 20/36/12 24/49/12
f 21/20/10 22/16/10 24/30/10
f 28/24/10 27/26/10 23/53/10
f 2/15/16 26/54/16 28/24/16
f 2/55/4 5/56/4 3/2/4
f 16/27/2 1/6/2 8/23/2
f 13/57/4 14/12/4 1/7/4
f 25/58/4 26/11/4 14/12/4
f 2/55/4 3/2/4 26/11/4
f 6/47/14 20/36/14 11/46/14
f 26/11/4 3/2/4 1/7/4
f 4/13/3 9/8/3 3/10/3
f 2/15/16 28/24/16 22/16/16
f 4/13/6 7/51/6 12/18/6
f 6/19/5 7/44/5 22/16/5
f 28/24/8 26/54/8 25/25/8
f 28/24/10 23/53/10 24/30/10
f 9/22/7 12/40/7 16/27/7
f 20/29/9 19/59/9 17/4/9
f 15/28/7 16/27/7 12/40/7
f 14/39/11 13/60/11 17/33/11
f 23/43/13 27/37/13 14/39/13
f 6/50/15 11/61/15 12/18/15
f 23/52/12 18/34/12 20/36/12
f 16/27/2 17/4/2 1/6/2
f 6/47/14 24/49/14 20/36/14
