# Blender v2.77 (sub 0) OBJ File: 'LowPoly_Level_Kit_Rocks.blend'
# www.blender.org
g Rock_Round_s_01
v 0.087638 0.087310 0.175064
v -0.134924 0.084385 0.108194
v -0.148863 0.091278 -0.188174
v 0.041142 0.084825 -0.171304
v 0.264523 0.092033 0.001940
v 0.000001 0.167116 0.000013
v 0.320114 0.000000 0.063595
v 0.260380 -0.000000 -0.050933
v 0.020528 0.000000 0.205800
v 0.194465 0.000000 0.166496
v -0.184069 -0.000091 0.054780
v -0.099915 -0.000062 0.166496
v -0.120986 -0.000000 -0.285683
v -0.195728 0.000000 -0.135424
v 0.104464 -0.000976 -0.124470
v -0.009607 -0.000000 -0.255898
v 0.215128 0.106885 0.102899
v -0.041659 0.098928 0.166495
v -0.172476 0.099321 -0.024668
v -0.057232 0.106637 -0.228105
v 0.152588 0.098835 -0.077186
v 0.043645 0.150006 0.102899
v 0.131839 0.153835 0.002741
v -0.083260 0.148724 0.063595
v -0.087493 0.152293 -0.087684
v 0.028725 0.148703 -0.100615
vt 0.5828 0.9144
vt 0.5963 0.9321
vt 0.5718 0.9256
vt 0.5467 0.9133
vt 0.5633 0.9108
vt 0.5536 0.9252
vt 0.5297 0.9546
vt 0.5351 0.9307
vt 0.5457 0.9443
vt 0.5579 0.9677
vt 0.5405 0.9648
vt 0.5603 0.9527
vt 0.5996 0.9485
vt 0.5808 0.9586
vt 0.5793 0.9430
vt 0.5615 0.9374
vt 0.6070 0.9660
vt 0.5756 0.9802
vt 0.5417 0.9855
vt 0.5195 0.9764
vt 0.5122 0.9439
vt 0.5268 0.9094
vt 0.5511 0.8939
vt 0.5778 0.8939
vt 0.6078 0.9129
vt 0.6212 0.9430
vn 0.2004 0.7968 0.5701
vn -0.4437 0.7232 0.5293
vn -0.5897 0.7980 -0.1244
vn 0.4690 0.6947 -0.5454
vn 0.3730 0.8067 -0.4583
vn 0.1022 0.9833 -0.1508
vn 0.4056 0.7988 -0.4443
vn 0.3967 0.7146 -0.5761
vn 0.0107 0.9841 -0.1770
vn -0.0052 0.9507 -0.3102
vn -0.3023 0.8854 -0.3530
vn -0.1947 0.9804 0.0286
vn -0.5101 0.8594 0.0346
vn -0.6541 0.7086 0.2645
vn -0.0694 0.9789 0.1922
vn -0.1577 0.8624 0.4811
vn 0.0256 0.7623 0.6467
vn 0.0969 0.9876 0.1231
vn 0.2365 0.9404 0.2442
vn 0.4215 0.9039 0.0732
vn 0.5454 0.3990 -0.7372
vn 0.4152 0.2182 -0.8832
vn 0.6403 0.0543 -0.7662
vn 0.5214 0.4256 -0.7396
vn 0.2425 0.3447 -0.9069
vn -0.4004 0.6091 -0.6846
vn -0.9121 0.3813 -0.1505
vn -0.9848 0.1631 0.0604
vn -0.8954 0.3370 0.2910
vn -0.5378 0.3165 0.7814
vn -0.3053 0.1797 0.9352
vn -0.0303 0.3526 0.9353
vn 0.4008 0.4100 0.8193
vn 0.6003 0.3201 0.7330
vn 0.7348 0.6232 0.2678
vn 0.7412 0.1967 -0.6418
vn -0.8776 0.1983 -0.4365
vn -0.7959 0.0839 0.5995
vn 0.2172 0.1714 0.9610
vn 0.8649 0.2202 -0.4511
s off
f 1/1/1 17/2/1 22/3/1
f 2/4/2 18/5/2 24/6/2
f 3/7/3 19/8/3 25/9/3
f 4/10/4 20/11/4 26/12/4
f 5/13/5 21/14/5 23/15/5
f 23/15/6 26/12/6 6/16/6
f 23/15/7 21/14/7 26/12/7
f 21/14/8 4/10/8 26/12/8
f 26/12/9 25/9/9 6/16/9
f 26/12/10 20/11/10 25/9/10
f 20/11/11 3/7/11 25/9/11
f 25/9/12 24/6/12 6/16/12
f 25/9/13 19/8/13 24/6/13
f 19/8/14 2/4/14 24/6/14
f 24/6/15 22/3/15 6/16/15
f 24/6/16 18/5/16 22/3/16
f 18/5/17 1/1/17 22/3/17
f 22/3/18 23/15/18 6/16/18
f 22/3/19 17/2/19 23/15/19
f 17/2/20 5/13/20 23/15/20
f 8/17/21 21/14/21 5/13/21
f 8/17/22 15/18/22 21/14/22
f 15/18/23 4/10/23 21/14/23
f 16/19/24 20/11/24 4/10/24
f 16/19/25 13/20/25 20/11/25
f 13/20/26 3/7/26 20/11/26
f 14/21/27 19/8/27 3/7/27
f 14/21/28 11/22/28 19/8/28
f 11/22/29 2/4/29 19/8/29
f 12/23/30 18/5/30 2/4/30
f 12/23/31 9/24/31 18/5/31
f 9/24/32 1/1/32 18/5/32
f 10/25/33 17/2/33 1/1/33
f 10/25/34 7/26/34 17/2/34
f 7/26/35 5/13/35 17/2/35
f 15/18/36 16/19/36 4/10/36
f 13/20/37 14/21/37 3/7/37
f 11/22/38 12/23/38 2/4/38
f 9/24/39 10/25/39 1/1/39
f 7/26/40 8/17/40 5/13/40
