# Blender v2.77 (sub 0) OBJ File: 'LowPoly_Level_Kit_Rocks.blend'
# www.blender.org
g Rock_Round_l_08
v -0.856091 0.210480 -1.070470
v -1.662988 0.133792 -0.239689
v -1.361154 0.376631 -0.647883
v -1.495135 0.319876 0.415620
v -0.783991 0.949530 0.448016
v -0.670165 1.015465 -0.149227
v -0.516600 0.959483 0.626502
v 1.392740 0.079947 0.718704
v 0.496895 1.101684 0.163023
v 0.109738 1.030601 0.522982
v 0.597269 0.770726 0.702373
v 1.521581 0.215643 0.554110
v 1.137423 0.755872 0.406646
v 1.109961 0.889311 0.181417
v 1.722170 0.157822 0.123343
v 1.297716 0.781301 -0.099779
v 0.086760 0.507609 -1.104350
v 1.084067 0.795151 -0.507773
v 1.091519 0.436113 -0.846966
v 0.553709 0.323085 -1.128686
v -0.285987 1.062919 -0.254551
v 0.364039 1.111268 -0.084199
v 0.241297 0.905699 -0.675538
v 0.616875 0.959907 -0.502324
v -1.435628 0.157430 0.576083
v -0.456010 0.451517 1.041078
v 0.589072 0.278450 1.039541
v 0.476619 0.370915 1.040737
v -0.687234 0.236774 1.037887
v -0.746321 -0.006259 -1.080141
v -1.639259 -0.006259 -0.199381
v 1.357268 -0.006259 0.732340
v 1.736231 -0.006259 -0.010639
v 0.620345 -0.006259 -1.139063
v 1.347163 -0.006259 -0.778481
v -1.436938 -0.006259 0.519934
v -0.551374 -0.006259 1.034611
v 0.595090 -0.006259 1.035574
v 0.242322 -0.006259 -1.122765
vt 0.8063 0.9411
vt 0.7854 0.9522
vt 0.7752 0.9390
vt 0.8182 0.9571
vt 0.8222 0.9437
vt 0.8246 0.9535
vt 0.8383 0.9473
vt 0.8349 0.9406
vt 0.8380 0.9355
vt 0.7685 0.9379
vt 0.7829 0.9778
vt 0.8116 0.9453
vt 0.8083 0.9285
vt 0.8214 0.9307
vt 0.8259 0.9943
vt 0.8355 0.9699
vt 0.8545 0.9808
vt 0.8251 0.9390
vt 0.8584 0.9423
vt 0.8534 0.9299
vt 0.8560 0.9231
vt 0.8324 0.9557
vt 0.8219 0.9790
vt 0.8120 0.9720
vt 0.8311 0.9263
vt 0.8134 0.9262
vt 0.7893 0.9689
vt 0.8344 0.9114
vt 0.8588 0.9208
vt 0.8381 0.9102
vt 0.8446 0.9006
vt 0.7810 0.9080
vt 0.7878 0.9126
vt 0.7877 0.9204
vt 0.8156 0.9102
vt 0.8094 0.9039
vt 0.8111 0.8923
vt 0.8119 0.9943
vt 0.8648 0.9472
vn -0.6612 0.7490 -0.0433
vn 0.0167 0.9433 -0.3314
vn 0.7492 0.6058 0.2676
vn -0.6681 -0.3081 -0.6773
vn -0.0975 0.9911 0.0908
vn 0.4414 0.1173 -0.8896
vn 0.2774 0.8410 0.4644
vn 0.8545 -0.2827 0.4358
vn 0.8148 0.4070 -0.4129
vn 0.3279 0.9343 -0.1400
vn 0.2284 0.6711 -0.7053
vn 0.2774 0.8410 0.4645
vn -0.2589 0.7526 -0.6054
vn 0.0552 0.6353 0.7703
vn 0.3697 -0.0051 0.9292
vn -0.9592 -0.0849 0.2698
vn 0.4247 0.5068 0.7502
vn -0.4888 0.5159 0.7035
vn -0.0008 -0.0140 0.9999
vn -0.4823 -0.2808 0.8298
vn -0.0431 0.0228 -0.9988
s off
f 6/1/1 3/2/1 2/3/1
f 23/4/2 22/5/2 24/6/2
f 16/7/3 14/8/3 13/9/3
f 31/10/4 3/2/4 30/11/4
f 21/12/5 5/13/5 10/14/5
f 34/15/6 19/16/6 35/17/6
f 14/8/7 9/18/7 13/9/7
f 15/19/8 12/20/8 8/21/8
f 18/22/9 16/7/9 19/16/9
f 24/6/10 14/8/10 16/7/10
f 20/23/11 17/24/11 23/4/11
f 11/25/12 9/18/12 10/14/12
f 18/22/11 19/16/11 24/6/11
f 22/5/10 9/18/10 14/8/10
f 13/9/3 15/19/3 16/7/3
f 18/22/10 24/6/10 16/7/10
f 5/13/5 7/26/5 10/14/5
f 10/14/5 9/18/5 22/5/5
f 22/5/5 21/12/5 10/14/5
f 1/27/13 3/2/13 17/24/13
f 6/1/13 21/12/13 3/2/13
f 10/14/14 28/28/14 11/25/14
f 32/29/15 27/30/15 38/31/15
f 36/32/16 25/33/16 4/34/16
f 21/12/13 17/24/13 3/2/13
f 11/25/17 8/21/17 12/20/17
f 12/20/17 13/9/17 11/25/17
f 11/25/17 28/28/17 27/30/17
f 6/1/1 4/34/1 5/13/1
f 20/23/11 24/6/11 19/16/11
f 10/14/14 7/26/14 26/35/14
f 5/13/18 29/36/18 26/35/18
f 7/26/18 5/13/18 26/35/18
f 4/34/18 25/33/18 29/36/18
f 3/2/4 1/27/4 30/11/4
f 28/28/19 26/35/19 37/37/19
f 28/28/19 38/31/19 27/30/19
f 26/35/19 29/36/19 37/37/19
f 36/32/20 29/36/20 25/33/20
f 16/7/9 35/17/9 19/16/9
f 20/23/21 39/38/21 17/24/21
f 15/19/9 33/39/9 35/17/9
f 32/29/8 15/19/8 8/21/8
f 31/10/16 4/34/16 2/3/16
f 17/24/21 30/11/21 1/27/21
f 23/4/2 21/12/2 22/5/2
f 31/10/4 2/3/4 3/2/4
f 21/12/5 6/1/5 5/13/5
f 34/15/6 20/23/6 19/16/6
f 24/6/10 22/5/10 14/8/10
f 11/25/12 13/9/12 9/18/12
f 13/9/3 12/20/3 15/19/3
f 10/14/14 26/35/14 28/28/14
f 32/29/15 8/21/15 27/30/15
f 21/12/13 23/4/13 17/24/13
f 11/25/17 27/30/17 8/21/17
f 6/1/1 2/3/1 4/34/1
f 20/23/11 23/4/11 24/6/11
f 5/13/18 4/34/18 29/36/18
f 28/28/19 37/37/19 38/31/19
f 36/32/20 37/37/20 29/36/20
f 16/7/9 15/19/9 35/17/9
f 20/23/21 34/15/21 39/38/21
f 32/29/8 33/39/8 15/19/8
f 31/10/16 36/32/16 4/34/16
f 17/24/21 39/38/21 30/11/21
