# Blender v2.77 (sub 0) OBJ File: 'LowPoly_Level_Kit_Rocks.blend'
# www.blender.org
g Rock_Round_l_02
v -0.200992 -0.000001 -1.193697
v -0.830537 0.000000 -1.200828
v -1.076571 0.000000 -0.493721
v -0.741171 0.000000 0.858939
v -0.123430 0.000000 1.104129
v 0.380853 0.000000 0.731467
v 1.058406 0.000004 -0.224859
v 0.889201 0.000004 -0.589481
v -0.732639 0.000000 0.226087
v 0.281470 0.000002 -0.695342
v -0.193274 0.336846 -1.232381
v -0.778841 0.336847 -1.125071
v -1.051273 0.159500 -0.467361
v -0.778841 0.159500 0.871688
v -0.121131 0.159500 1.144120
v 0.536579 0.159500 0.871688
v 1.093193 0.159503 -0.217280
v 0.820761 0.159503 -0.556431
v -0.687781 0.159500 0.202164
v 0.255484 0.159502 -0.654897
v -0.237816 0.951125 -0.796807
v -0.552709 0.951126 -0.739100
v -0.578937 0.987281 -0.593426
v -0.693033 0.605808 0.659452
v -0.205241 0.605808 0.952581
v -0.442990 1.102467 -0.251025
v -0.020673 0.846756 -0.579530
v -0.685226 0.571095 -1.078882
v -0.198693 0.571094 -1.168044
v -0.993609 0.323979 -0.384304
v -0.586769 0.248668 0.148291
v -0.059682 0.248668 1.016981
v -0.771590 0.248668 0.704583
v 0.430523 0.459091 0.948269
v 1.004057 0.438171 -0.200215
v 0.698493 0.296506 -0.559199
v 0.196968 0.248670 -0.563820
v -0.559882 1.104288 0.629130
v -0.148744 1.168738 0.826150
v 0.170454 1.168738 0.621996
v -0.404660 1.104288 0.290472
v -0.611078 0.754329 -0.890933
v -0.205820 0.754328 -0.965200
v -0.809392 0.754329 -0.412160
v 0.807957 0.754332 -0.191501
v 0.461432 1.057164 0.506232
v 0.627654 0.754332 -0.415960
v 0.157327 0.754330 -0.497886
v -0.457821 1.057164 -0.007474
v -0.044722 1.308999 0.223378
v -0.120846 1.252317 0.353467
v -0.618558 0.639365 0.838398
v -0.315668 0.639365 1.028467
v -0.244241 0.353666 1.080826
v -0.681401 0.353666 0.867662
v -0.512042 1.038131 0.818738
v -0.270473 1.089688 0.899842
v -0.804423 0.000000 0.753887
v -0.755572 0.159500 0.700601
vt 0.4001 0.9657
vt 0.3983 0.9748
vt 0.3937 0.9695
vt 0.4300 0.8961
vt 0.3902 0.9130
vt 0.4291 0.8893
vt 0.4646 0.9144
vt 0.4482 0.9048
vt 0.4476 0.8973
vt 0.4000 0.9188
vt 0.3968 0.9380
vt 0.3910 0.9409
vt 0.4267 0.9471
vt 0.4279 0.9391
vt 0.4344 0.9491
vt 0.4703 0.9093
vt 0.4248 0.9766
vt 0.4495 0.9749
vt 0.4536 0.9809
vt 0.4199 0.9359
vt 0.4212 0.9299
vt 0.4070 0.9424
vt 0.4163 0.9436
vt 0.4076 0.9455
vt 0.4274 0.9719
vt 0.4469 0.9600
vt 0.4178 0.9416
vt 0.4528 0.9498
vt 0.4491 0.9504
vt 0.4409 0.9481
vt 0.4496 0.9360
vt 0.4602 0.9412
vt 0.4541 0.9430
vt 0.3994 0.9446
vt 0.4200 0.9478
vt 0.4070 0.9669
vt 0.4052 0.9596
vt 0.4256 0.9407
vt 0.4060 0.9265
vt 0.4589 0.9522
vt 0.4119 0.9536
vt 0.4223 0.9836
vt 0.4606 0.9181
vt 0.4477 0.9292
vt 0.4737 0.9608
vt 0.4054 0.9700
vt 0.4328 0.9157
vt 0.4317 0.9056
vt 0.4664 0.9551
vt 0.4679 0.9410
vt 0.4760 0.9395
vt 0.4153 0.9577
vt 0.4170 0.9472
vt 0.4400 0.9178
vt 0.4907 0.9362
vt 0.4564 0.9877
vt 0.4493 0.8893
vt 0.3843 0.9411
vt 0.4869 0.9686
vn -0.8324 -0.2366 0.5012
vn 0.7993 -0.2012 0.5663
vn 0.1701 0.1321 -0.9765
vn 0.2634 0.7253 0.6360
vn -0.5005 0.8644 -0.0474
vn 0.1653 0.2676 -0.9492
vn -0.8769 0.0670 0.4761
vn 0.3934 0.9129 0.1089
vn 0.5923 0.1658 0.7885
vn -0.7208 0.3474 0.5998
vn 0.5340 0.1339 0.8348
vn -0.7824 0.5568 -0.2791
vn -0.7062 0.7026 0.0877
vn 0.7168 0.5170 -0.4680
vn 0.5345 0.5485 0.6430
vn 0.4743 0.3397 0.8122
vn -0.3227 0.8618 0.3914
vn -0.8743 0.4429 0.1984
vn 0.1148 0.9770 0.1795
vn -0.3820 0.0584 0.9223
vn 0.4793 0.5055 0.7175
vn -0.1399 0.6305 -0.7635
vn -0.5208 0.1996 0.8300
vn -0.8373 0.3037 0.4546
vn 0.7818 0.1405 -0.6075
vn -0.8698 0.4285 -0.2447
vn -0.9594 0.2502 -0.1305
vn 0.5510 -0.7855 0.2816
vn -0.2258 0.9615 0.1567
vn 0.6085 0.7727 0.1808
vn 0.7633 0.4609 0.4527
vn -0.0596 0.6939 -0.7176
vn -0.1224 0.7343 -0.6677
vn -0.9765 -0.1695 -0.1328
vn 0.8624 0.2489 0.4408
vn -0.4446 0.7750 0.4492
vn 0.7721 -0.1389 -0.6202
vn 0.8622 0.1526 -0.4831
vn -0.0692 0.9288 0.3642
vn -0.3776 -0.1621 0.9117
vn 0.2467 -0.7645 0.5956
vn -0.8976 0.2512 -0.3621
vn 0.4358 0.1554 0.8865
vn 0.9085 0.2169 0.3571
vn -0.9066 0.2430 0.3449
vn -0.1742 0.2570 -0.9506
vn -0.1198 0.7705 -0.6261
vn 0.2328 0.9468 0.2221
vn -0.3596 0.2895 0.8871
vn -0.8883 0.2125 -0.4071
vn -0.0194 0.2958 -0.9551
vn -0.8029 0.4947 -0.3326
vn -0.6965 0.7167 0.0355
vn 0.5643 0.6994 -0.4385
vn 0.0523 0.1978 0.9788
vn -0.8318 0.5241 -0.1828
vn 0.6971 0.4478 -0.5600
vn 0.7729 -0.0898 -0.6282
vn 0.6002 0.2869 0.7466
vn -0.3139 0.8690 0.3824
vn -0.1792 -0.1082 -0.9778
vn -0.9080 0.2588 0.3294
vn 0.5174 0.8363 -0.1814
vn -0.9630 0.1873 -0.1939
vn 0.5608 0.4870 -0.6696
vn -0.0455 0.9676 -0.2483
vn -0.9230 0.2006 -0.3282
vn -0.4776 0.8728 0.1008
vn -0.8136 0.2324 0.5329
vn -0.4263 0.2321 0.8743
vn 0.1094 0.4480 0.8873
vn -0.4376 0.0551 0.8975
vn -0.9000 0.0717 0.4300
vn 0.8484 0.4073 -0.3382
vn -0.8816 0.4013 -0.2486
vn -0.4199 0.8869 -0.1925
vn 0.4538 0.8909 0.0191
vn 0.9049 0.2286 0.3589
vn 0.8189 0.4301 -0.3800
vn 0.6441 0.7110 -0.2822
vn -0.3597 -0.2220 0.9063
vn 0.5816 -0.2057 0.7870
vn -0.9724 0.1829 0.1446
vn -0.9122 0.2350 0.3356
vn 0.1025 0.8022 -0.5882
vn 0.2337 0.8897 -0.3921
vn -0.5228 0.1807 0.8331
vn 0.1699 0.1405 -0.9754
vn 0.2088 -0.1722 0.9627
vn -0.8663 0.3476 -0.3588
vn 0.6574 0.3158 -0.6842
vn 0.6894 0.2816 -0.6674
vn 0.0111 0.2178 -0.9759
vn -0.9099 0.2626 0.3212
vn 0.3069 0.9192 -0.2465
vn -0.7079 0.5014 -0.4975
vn 0.7492 0.2765 -0.6018
vn -0.9226 0.2138 -0.3210
s off
f 14/1/1 58/2/1 4/3/1
f 17/4/2 6/5/2 7/6/2
f 20/7/3 36/8/3 18/9/3
f 16/10/4 32/11/4 15/12/4
f 41/13/5 50/14/5 49/15/5
f 18/9/6 10/16/6 20/7/6
f 19/17/7 30/18/7 13/19/7
f 50/14/8 40/20/8 46/21/8
f 25/22/9 57/23/9 53/24/9
f 31/25/10 44/26/10 30/18/10
f 25/22/11 40/20/11 39/27/11
f 22/28/12 44/26/12 23/29/12
f 26/30/13 44/26/13 49/15/13
f 27/31/14 43/32/14 21/33/14
f 54/34/15 15/12/15 32/11/15
f 25/22/16 54/34/16 32/11/16
f 38/35/17 57/23/17 39/27/17
f 33/36/18 14/1/18 55/37/18
f 39/27/19 40/20/19 51/38/19
f 54/34/20 14/1/20 15/12/20
f 40/20/21 34/39/21 46/21/21
f 42/40/22 21/33/22 43/32/22
f 55/37/23 53/24/23 52/41/23
f 13/19/24 9/42/24 19/17/24
f 37/43/25 43/32/25 48/44/25
f 30/18/26 12/45/26 13/19/26
f 14/1/27 59/46/27 58/2/27
f 17/4/28 16/10/28 6/5/28
f 9/42/27 59/46/27 19/17/27
f 51/38/29 38/35/29 39/27/29
f 49/15/30 27/31/30 26/30/30
f 45/47/31 16/10/31 35/48/31
f 20/7/32 37/43/32 36/8/32
f 28/49/33 43/32/33 29/50/33
f 19/17/34 59/46/34 33/36/34
f 16/10/35 17/4/35 35/48/35
f 19/17/36 31/25/36 30/18/36
f 7/6/37 18/9/37 17/4/37
f 37/43/38 11/51/38 29/50/38
f 50/14/39 51/38/39 40/20/39
f 4/3/40 15/12/40 14/1/40
f 15/12/41 6/5/41 16/10/41
f 41/13/42 31/25/42 24/52/42
f 25/22/43 39/27/43 57/23/43
f 45/47/44 46/21/44 34/39/44
f 55/37/45 24/52/45 33/36/45
f 28/49/46 11/51/46 12/45/46
f 50/14/47 48/44/47 49/15/47
f 23/29/48 27/31/48 21/33/48
f 56/53/49 53/24/49 57/23/49
f 24/52/50 38/35/50 41/13/50
f 37/43/51 47/54/51 36/8/51
f 22/28/52 42/40/52 44/26/52
f 26/30/53 23/29/53 44/26/53
f 27/31/54 48/44/54 43/32/54
f 32/11/55 34/39/55 25/22/55
f 30/18/56 42/40/56 28/49/56
f 35/48/57 47/54/57 45/47/57
f 20/7/58 1/55/58 11/51/58
f 25/22/59 53/24/59 54/34/59
f 38/35/60 56/53/60 57/23/60
f 1/55/61 12/45/61 11/51/61
f 33/36/34 59/46/34 14/1/34
f 56/53/62 24/52/62 52/41/62
f 46/21/63 47/54/63 50/14/63
f 24/52/64 19/17/64 33/36/64
f 35/48/65 18/9/65 36/8/65
f 21/33/66 22/28/66 23/29/66
f 12/45/67 3/56/67 13/19/67
f 41/13/68 51/38/68 50/14/68
f 18/9/6 8/57/6 10/16/6
f 31/25/69 49/15/69 44/26/69
f 54/34/70 55/37/70 14/1/70
f 40/20/71 25/22/71 34/39/71
f 42/40/22 22/28/22 21/33/22
f 55/37/72 54/34/72 53/24/72
f 13/19/73 3/56/73 9/42/73
f 37/43/74 29/50/74 43/32/74
f 30/18/75 28/49/75 12/45/75
f 9/42/27 58/2/27 59/46/27
f 51/38/76 41/13/76 38/35/76
f 49/15/77 48/44/77 27/31/77
f 45/47/78 34/39/78 16/10/78
f 28/49/33 42/40/33 43/32/33
f 7/6/79 8/57/79 18/9/79
f 37/43/80 20/7/80 11/51/80
f 4/3/81 5/58/81 15/12/81
f 15/12/82 5/58/82 6/5/82
f 41/13/83 49/15/83 31/25/83
f 55/37/84 52/41/84 24/52/84
f 28/49/46 29/50/46 11/51/46
f 50/14/85 47/54/85 48/44/85
f 23/29/86 26/30/86 27/31/86
f 56/53/87 52/41/87 53/24/87
f 37/43/88 48/44/88 47/54/88
f 32/11/89 16/10/89 34/39/89
f 30/18/90 44/26/90 42/40/90
f 35/48/91 36/8/91 47/54/91
f 20/7/92 10/16/92 1/55/92
f 1/55/93 2/59/93 12/45/93
f 56/53/94 38/35/94 24/52/94
f 46/21/95 45/47/95 47/54/95
f 24/52/96 31/25/96 19/17/96
f 35/48/97 17/4/97 18/9/97
f 12/45/98 2/59/98 3/56/98
