# Blender v2.77 (sub 0) OBJ File: 'LowPoly_Level_Kit_Rocks.blend'
# www.blender.org
g Rocks_Round_s_02
v -0.043869 -0.000680 -0.225116
v -0.073610 -0.000680 -0.203509
v -0.062250 -0.000680 -0.168547
v -0.025489 -0.000680 -0.168547
v -0.014129 -0.000680 -0.203509
v -0.043869 0.012794 -0.206129
v -0.055552 0.012794 -0.197641
v -0.051089 0.012794 -0.183908
v -0.036649 0.012794 -0.183908
v -0.032187 0.012794 -0.197641
v 0.254292 -0.000403 -0.258651
v 0.174393 -0.000403 -0.240345
v 0.167113 -0.000403 -0.158698
v 0.242513 -0.000403 -0.126545
v 0.296393 -0.000403 -0.188319
v 0.237685 0.029640 -0.219707
v 0.206299 0.029640 -0.212516
v 0.203439 0.029640 -0.180444
v 0.233058 0.029640 -0.167813
v 0.254223 0.029640 -0.192079
v -0.197820 0.021251 -0.131901
v -0.204998 0.021251 -0.109809
v -0.228228 0.021251 -0.109809
v -0.235406 0.021251 -0.131901
v -0.216613 0.021251 -0.145555
v -0.168772 -0.000423 -0.141339
v -0.187045 -0.000423 -0.085099
v -0.246181 -0.000423 -0.085099
v -0.264454 -0.000423 -0.141339
v -0.216613 -0.000423 -0.176098
v -0.176669 -0.000247 0.100516
v -0.202128 -0.000247 0.117493
v -0.191308 -0.000247 0.145862
v -0.161853 -0.000247 0.145862
v -0.152751 -0.000247 0.117848
v -0.176581 0.010549 0.115748
v -0.186009 0.010549 0.122535
v -0.182366 0.010549 0.133553
v -0.170795 0.010549 0.133553
v -0.167220 0.010549 0.122549
v -0.016264 0.044820 0.039158
v -0.022390 0.044820 -0.061578
v 0.038783 0.044820 -0.035359
v 0.106080 -0.000678 -0.005733
v -0.050321 -0.000678 -0.095799
v 0.023050 -0.000779 -0.116494
v -0.073817 0.044820 0.010297
v -0.081426 -0.000678 0.075599
v -0.100671 -0.000678 -0.023248
v 0.048117 -0.000678 0.079025
v -0.030887 -0.000678 0.103488
v 0.084223 -0.000779 -0.090275
v 0.172069 -0.000421 0.056812
v 0.118138 -0.000421 0.092775
v 0.141058 -0.000421 0.152872
v 0.203456 -0.000421 0.152872
v 0.222739 -0.000421 0.093527
v 0.172257 0.022449 0.089079
v 0.152284 0.022449 0.103457
v 0.160001 0.022449 0.126798
v 0.184513 0.022449 0.126798
v 0.192087 0.022449 0.103487
vt 0.0552 0.9505
vt 0.0667 0.9465
vt 0.0576 0.9590
vt 0.0578 0.9342
vt 0.0502 0.9445
vt 0.0432 0.9392
vt 0.0505 0.9494
vt 0.0432 0.9543
vt 0.0547 0.9425
vt 0.1842 0.9242
vt 0.1756 0.8990
vt 0.2030 0.9188
vt 0.1667 0.9255
vt 0.1589 0.9509
vt 0.1484 0.9188
vt 0.1817 0.9347
vt 0.1926 0.9509
vt 0.1709 0.9354
vt 0.0417 0.9316
vt 0.0411 0.9526
vt 0.0268 0.9524
vt 0.0462 0.9587
vt 0.0411 0.9722
vt 0.0655 0.9389
vt 0.0455 0.9457
vt 0.0536 0.9554
vt 0.0650 0.9640
vt 0.8211 0.9306
vt 0.8304 0.9335
vt 0.8186 0.9372
vt 0.8246 0.9252
vt 0.8187 0.9179
vt 0.8304 0.9212
vt 0.8185 0.9275
vt 0.8110 0.9274
vt 0.5465 0.9359
vt 0.5736 0.9544
vt 0.5462 0.9562
vt 0.5177 0.9517
vt 0.5771 0.9323
vt 0.5422 0.9030
vt 0.5834 0.9013
vt 0.6048 0.9536
vt 0.5829 0.9757
vt 0.6076 0.9267
vt 0.5177 0.9275
vt 0.5475 0.9793
vt 0.5573 0.9424
vt 0.5769 0.9487
vt 0.5521 0.9565
vt 0.5646 0.9311
vt 0.5522 0.9156
vt 0.5769 0.9228
vt 0.5518 0.9358
vt 0.5360 0.9357
vt 0.5652 0.9394
vt 0.1750 0.9185
vt 0.0579 0.9463
vt 0.0532 0.9473
vt 0.5569 0.9294
vt 0.8209 0.9244
vt 0.8248 0.9291
vn 0.3876 0.7518 -0.5335
vn 0.0000 0.7518 0.6594
vn -0.3876 0.7518 -0.5335
vn 0.6271 0.7518 0.2038
vn -0.6271 0.7518 0.2038
vn 0.5658 0.7518 -0.3387
vn -0.2587 0.7518 0.6066
vn -0.1473 0.7518 -0.6428
vn 0.4969 0.7518 0.4334
vn -0.6568 0.7518 -0.0586
vn 0.3874 0.7511 -0.5346
vn -0.3522 0.7726 -0.5282
vn -0.5898 0.7756 0.2249
vn 0.0000 1.0000 0.0000
vn -0.2658 0.8052 0.5301
vn 0.4398 0.8463 0.3007
vn -0.2019 0.6649 -0.7192
vn 0.5994 0.7851 -0.1559
vn 0.2186 0.8320 -0.5100
vn 0.1843 0.7822 0.5951
vn -0.8990 0.4016 0.1750
vn -0.6006 0.6823 -0.4168
vn -0.3834 0.7546 -0.5326
vn -0.6248 0.7530 0.2066
vn -0.2817 0.8124 0.5105
vn 0.4153 0.8564 0.3068
vn -0.6018 0.6727 -0.4306
s off
f 6/1/1 5/2/1 1/3/1
f 4/4/2 8/5/2 3/6/2
f 7/7/3 1/3/3 2/8/3
f 5/2/4 9/9/4 4/4/4
f 3/6/5 7/7/5 2/8/5
f 16/10/6 15/11/6 11/12/6
f 19/13/7 13/14/7 14/15/7
f 17/16/8 11/12/8 12/17/8
f 15/11/9 19/13/9 14/15/9
f 18/18/10 12/17/10 13/14/10
f 28/19/5 24/20/5 29/21/5
f 29/21/3 25/22/3 30/23/3
f 27/24/2 23/25/2 28/19/2
f 21/26/4 27/24/4 26/27/4
f 25/22/1 26/27/1 30/23/1
f 36/28/11 35/29/11 31/30/11
f 39/31/2 33/32/2 34/33/2
f 37/34/12 31/30/12 32/35/12
f 35/29/4 39/31/4 34/33/4
f 33/32/13 37/34/13 32/35/13
f 41/36/14 42/37/14 47/38/14
f 48/39/15 41/36/15 47/38/15
f 43/40/16 50/41/16 44/42/16
f 42/37/17 46/43/17 45/44/17
f 44/42/18 52/45/18 43/40/18
f 43/40/19 46/43/19 42/37/19
f 50/41/20 41/36/20 51/46/20
f 48/39/21 47/38/21 49/47/21
f 49/47/22 42/37/22 45/44/22
f 58/48/11 57/49/11 53/50/11
f 61/51/2 55/52/2 56/53/2
f 59/54/12 53/50/12 54/55/12
f 62/56/4 56/53/4 57/49/4
f 55/52/13 59/54/13 54/55/13
f 20/57/14 18/18/14 19/13/14
f 8/5/14 9/9/14 10/58/14
f 16/10/14 17/16/14 18/18/14
f 8/5/14 6/1/14 7/7/14
f 23/25/14 22/59/14 21/26/14
f 60/60/14 58/48/14 59/54/14
f 38/61/14 39/31/14 40/62/14
f 23/25/14 25/22/14 24/20/14
f 60/60/14 61/51/14 62/56/14
f 38/61/14 36/28/14 37/34/14
f 6/1/1 10/58/1 5/2/1
f 4/4/2 9/9/2 8/5/2
f 7/7/3 6/1/3 1/3/3
f 5/2/4 10/58/4 9/9/4
f 3/6/5 8/5/5 7/7/5
f 16/10/6 20/57/6 15/11/6
f 19/13/7 18/18/7 13/14/7
f 17/16/8 16/10/8 11/12/8
f 15/11/9 20/57/9 19/13/9
f 18/18/10 17/16/10 12/17/10
f 28/19/5 23/25/5 24/20/5
f 29/21/3 24/20/3 25/22/3
f 27/24/2 22/59/2 23/25/2
f 21/26/4 22/59/4 27/24/4
f 25/22/1 21/26/1 26/27/1
f 36/28/1 40/62/1 35/29/1
f 39/31/2 38/61/2 33/32/2
f 37/34/23 36/28/23 31/30/23
f 35/29/4 40/62/4 39/31/4
f 33/32/24 38/61/24 37/34/24
f 41/36/14 43/40/14 42/37/14
f 48/39/25 51/46/25 41/36/25
f 43/40/26 41/36/26 50/41/26
f 43/40/19 52/45/19 46/43/19
f 49/47/27 47/38/27 42/37/27
f 58/48/1 62/56/1 57/49/1
f 61/51/2 60/60/2 55/52/2
f 59/54/23 58/48/23 53/50/23
f 62/56/4 61/51/4 56/53/4
f 55/52/24 60/60/24 59/54/24
f 20/57/14 16/10/14 18/18/14
f 8/5/14 10/58/14 6/1/14
f 60/60/14 62/56/14 58/48/14
f 23/25/14 21/26/14 25/22/14
f 38/61/14 40/62/14 36/28/14
