# Blender v2.77 (sub 0) OBJ File: 'LowPoly_Level_Kit_Rocks.blend'
# www.blender.org
g Rock_Round_crk_m_01
v -0.137931 0.038256 0.353662
v -0.181339 0.021447 0.410154
v -0.088533 0.038256 0.377280
v -0.092381 0.021447 0.450557
v -0.137931 -0.000181 0.353662
v -0.181339 -0.000181 0.410154
v -0.088533 -0.000181 0.377280
v -0.092381 -0.000181 0.450557
v -0.122280 0.072694 -0.006802
v -0.080920 0.056584 0.095984
v -0.087642 -0.008406 0.007144
v -0.053335 -0.040132 0.088053
v -0.156695 0.061301 0.012425
v -0.100285 0.050173 0.106803
v -0.122058 -0.019799 0.026371
v -0.072700 -0.046542 0.098872
v -0.234035 0.034803 0.153124
v -0.217191 0.008261 0.262373
v -0.147620 0.034803 0.178246
v -0.115461 0.008261 0.264228
v -0.234035 -0.025892 0.153124
v -0.217191 -0.025892 0.262373
v -0.147620 -0.025892 0.178246
v -0.115461 -0.025892 0.264228
v -0.074491 0.033847 -0.400908
v -0.019892 0.023304 -0.448720
v -0.061761 0.017756 -0.499684
v -0.070762 -0.005473 -0.399691
v -0.017793 0.001179 -0.448036
v -0.059663 -0.004369 -0.498999
v -0.014653 0.038292 -0.200236
v -0.130278 0.017458 -0.253918
v -0.097937 0.038292 -0.112809
v -0.185363 0.017458 -0.196093
v -0.014653 -0.009349 -0.200236
v -0.130278 -0.009349 -0.253918
v -0.097937 -0.009349 -0.112809
v -0.185363 -0.009349 -0.196093
v -0.054796 0.027875 -0.255675
v -0.141650 0.027875 -0.154451
v -0.054796 -0.009349 -0.255675
v -0.141650 -0.009349 -0.154451
v -0.276998 0.038084 -0.327871
v -0.212144 0.016910 -0.268120
v -0.222548 0.038084 -0.414885
v -0.147780 0.016910 -0.317573
v -0.276998 -0.010335 -0.327871
v -0.212144 -0.010335 -0.268120
v -0.222548 -0.010335 -0.414885
v -0.147780 -0.010335 -0.317573
v -0.704503 -0.005885 -0.326322
v -0.534303 -0.031539 -0.452691
v -0.213564 0.013728 -0.095365
v -0.467091 0.099705 -0.427000
v -0.344026 0.020567 -0.371200
v -0.234619 0.274594 -0.202886
v -0.254022 0.436928 -0.156845
v -0.427249 0.418579 -0.282868
v -0.643881 0.233516 -0.188375
v -0.667295 0.144982 -0.270280
v -0.493908 0.487581 -0.201852
v -0.690284 -0.024664 0.252004
v -0.466078 0.167071 0.370091
v -0.643881 0.183997 0.172449
v -0.274975 0.545589 0.016705
v -0.493589 0.556687 -0.084014
v -0.493847 0.556630 -0.083337
v -0.489473 0.539039 0.116534
v -0.317092 -0.015144 0.268562
v -0.241600 0.158895 0.137283
v -0.423259 0.260288 0.357810
v -0.374696 0.526572 0.245067
v -0.279718 0.536730 0.118185
v -0.474953 -0.008959 0.354447
v 0.694429 -0.009603 -0.025168
v 0.359412 -0.008184 0.274229
v 0.630203 0.120972 0.325566
v 0.254408 0.247733 0.399717
v 0.527179 0.391902 0.242496
v 0.271475 0.352073 0.348149
v 0.533634 0.438740 0.081757
v 0.595148 -0.009183 -0.152714
v 0.107360 -0.007117 -0.289026
v 0.110325 0.168308 -0.410733
v 0.171319 0.468994 -0.067519
v 0.335236 0.372211 -0.301682
v 0.400697 0.405496 -0.235045
v -0.053284 0.459572 -0.062880
v 0.006179 0.339453 -0.337083
v 0.045671 -0.006855 0.286483
v -0.050185 0.354005 0.301593
v 0.719546 0.136190 -0.219855
v 0.398828 0.221618 -0.368199
v 0.449346 0.289642 -0.333315
v 0.702602 0.383155 -0.093709
v 0.693469 0.380064 -0.120241
v 0.718592 0.294597 -0.197941
v 0.810300 0.177795 -0.168581
v 0.840212 0.073202 0.032350
v 0.698652 0.282467 0.231249
v 0.696423 0.134250 0.296907
v 0.869462 0.157486 -0.061374
v 0.813021 0.280028 0.001789
v 0.823548 0.257172 -0.009992
v 0.796315 0.091839 0.113116
v 0.732993 0.281734 0.162350
v -0.031795 0.196212 0.385839
vt 0.0395 0.9443
vt 0.0360 0.9481
vt 0.0360 0.9452
vt 0.0311 0.9727
vt 0.0346 0.9765
vt 0.0311 0.9756
vt 0.0383 0.9384
vt 0.0374 0.9363
vt 0.0393 0.9360
vt 0.0373 0.9443
vt 0.0384 0.9413
vt 0.0392 0.9443
vt 0.0393 0.9412
vt 0.0373 0.9385
vt 0.0259 0.9729
vt 0.0278 0.9757
vt 0.0259 0.9758
vt 0.0360 0.9499
vt 0.0320 0.9477
vt 0.0360 0.9454
vt 0.0899 0.9328
vt 0.0937 0.9368
vt 0.0888 0.9371
vt 0.0192 0.9729
vt 0.0208 0.9773
vt 0.0187 0.9773
vt 0.0392 0.9303
vt 0.0379 0.9360
vt 0.0373 0.9303
vt 0.0348 0.9767
vt 0.0360 0.9713
vt 0.0360 0.9767
vt 0.0316 0.9467
vt 0.0362 0.9573
vt 0.0320 0.9535
vt 0.0362 0.9515
vt 0.0320 0.9629
vt 0.0362 0.9591
vt 0.0362 0.9649
vt 0.0371 0.9515
vt 0.0393 0.9552
vt 0.0362 0.9552
vt 0.0094 0.9729
vt 0.0077 0.9786
vt 0.0063 0.9729
vt 0.0225 0.9730
vt 0.0208 0.9774
vt 0.0208 0.9729
vt 0.0362 0.9599
vt 0.0174 0.9729
vt 0.0187 0.9781
vt 0.0167 0.9781
vt 0.0143 0.9757
vt 0.0167 0.9729
vt 0.0167 0.9781
vt 0.0937 0.9340
vt 0.0962 0.9316
vt 0.0962 0.9369
vt 0.0225 0.9766
vt 0.0238 0.9729
vt 0.0245 0.9766
vt 0.0289 0.9729
vt 0.0278 0.9761
vt 0.0278 0.9729
vt 0.0373 0.9330
vt 0.0342 0.9373
vt 0.0345 0.9303
vt 0.0341 0.9373
vt 0.0372 0.9415
vt 0.0345 0.9443
vt 0.0366 0.9729
vt 0.0386 0.9751
vt 0.0362 0.9751
vt 0.0687 0.9734
vt 0.0670 0.9768
vt 0.0668 0.9733
vt 0.0372 0.9676
vt 0.0385 0.9706
vt 0.0371 0.9706
vt 0.0118 0.9729
vt 0.0094 0.9791
vt 0.0094 0.9729
vt 0.0687 0.9702
vt 0.0663 0.9700
vt 0.0385 0.9729
vt 0.0311 0.9437
vt 0.0311 0.9309
vt 0.0311 0.9373
vt 0.0311 0.9695
vt 0.0360 0.9649
vt 0.0360 0.9713
vt 0.0614 0.9719
vt 0.0663 0.9765
vt 0.0622 0.9765
vt 0.0126 0.9729
vt 0.0143 0.9788
vt 0.0118 0.9788
vt 0.0387 0.9644
vt 0.0374 0.9676
vt 0.0362 0.9644
vt 0.0259 0.9729
vt 0.0245 0.9771
vt 0.0245 0.9729
vt 0.0388 0.9599
vt 0.0363 0.9599
vt 0.0465 0.8940
vt 0.0625 0.8860
vt 0.0600 0.8940
vt 0.0584 0.9175
vt 0.0598 0.9281
vt 0.0551 0.9276
vt 0.1055 0.9902
vt 0.0961 0.9960
vt 0.0931 0.9912
vt 0.0556 0.8985
vt 0.0395 0.9045
vt 0.0429 0.8982
vt 0.1020 0.9584
vt 0.0955 0.9418
vt 0.1011 0.9373
vt 0.1084 0.9683
vt 0.1179 0.9592
vt 0.1175 0.9683
vt 0.0604 0.9831
vt 0.0483 0.9719
vt 0.0614 0.9700
vt 0.1159 0.9543
vt 0.0554 0.9895
vt 0.0614 0.9942
vt 0.0395 0.9817
vt 0.0399 0.9704
vt 0.0675 0.8909
vt 0.0395 0.9045
vt 0.1039 0.9385
vt 0.0944 0.9644
vt 0.0931 0.9500
vt 0.0949 0.9744
vt 0.1013 0.9683
vt 0.1055 0.9754
vt 0.0936 0.9849
vt 0.0936 0.9848
vt 0.1052 0.9807
vt 0.0126 0.9682
vt 0.0063 0.9536
vt 0.0311 0.9662
vt 0.0406 0.9151
vt 0.1114 0.9397
vt 0.0311 0.9359
vt 0.0687 0.9271
vt 0.0224 0.9729
vt 0.0202 0.9303
vt 0.0121 0.9347
vt 0.0690 0.9167
vt 0.0743 0.9058
vt 0.0817 0.9247
vt 0.1028 0.8953
vt 0.0989 0.9141
vt 0.0953 0.9110
vt 0.0518 0.9295
vt 0.0562 0.9313
vt 0.0495 0.9379
vt 0.0093 0.9069
vt 0.0063 0.9030
vt 0.0196 0.8961
vt 0.0244 0.9162
vt 0.0827 0.9000
vt 0.0748 0.9020
vt 0.0946 0.8951
vt 0.1005 0.8899
vt 0.0142 0.9237
vt 0.0129 0.9230
vt 0.0888 0.9080
vt 0.0665 0.9537
vt 0.0436 0.9438
vt 0.0956 0.8854
vt 0.1096 0.9252
vt 0.1014 0.9284
vt 0.1010 0.8844
vt 0.0898 0.8944
vt 0.0895 0.8933
vt 0.0680 0.9386
vt 0.0662 0.9352
vt 0.0944 0.8856
vt 0.0471 0.9281
vt 0.0421 0.9317
vt 0.0773 0.8844
vt 0.0822 0.8878
vt 0.0726 0.8883
vt 0.0733 0.8925
vt 0.0395 0.8874
vt 0.0214 0.8844
vt 0.0833 0.8886
vt 0.1096 0.8992
vt 0.0829 0.8966
vt 0.0303 0.9260
vt 0.0324 0.9171
vt 0.0872 0.9225
vt 0.0703 0.9312
vt 0.0399 0.9369
vt 0.0395 0.9700
vt 0.0908 0.9156
vt 0.0395 0.9046
vt 0.0690 0.9555
vt 0.0931 0.9739
vt 0.0745 0.9747
vt 0.0266 0.9273
vt 0.0069 0.8855
vt 0.0888 0.9358
vt 0.0841 0.9373
vt 0.0931 0.9437
vt 0.0752 0.9411
vt 0.0826 0.9791
vt 0.0395 0.9495
vt 0.0346 0.9713
vt 0.0373 0.9413
vt 0.0382 0.9413
vt 0.0278 0.9729
vt 0.0311 0.9515
vt 0.0937 0.9316
vt 0.0203 0.9729
vt 0.0390 0.9360
vt 0.0348 0.9713
vt 0.0355 0.9443
vt 0.0311 0.9582
vt 0.0311 0.9582
vt 0.0388 0.9515
vt 0.0094 0.9787
vt 0.0225 0.9776
vt 0.0393 0.9598
vt 0.0185 0.9729
vt 0.0227 0.9729
vt 0.0289 0.9762
vt 0.0373 0.9372
vt 0.0372 0.9373
vt 0.0683 0.9769
vt 0.0386 0.9676
vt 0.0118 0.9790
vt 0.0311 0.9373
vt 0.0319 0.9649
vt 0.0663 0.9700
vt 0.0140 0.9729
vt 0.0388 0.9676
vt 0.0259 0.9771
vt 0.0416 0.9220
vt 0.0690 0.9214
vt 0.0690 0.8844
vt 0.0803 0.9373
vt 0.0690 0.9700
vt 0.0888 0.9109
vt 0.0179 0.9303
vt 0.0922 0.9316
vn -0.1011 0.9721 0.2115
vn -0.0000 -1.0000 -0.0000
vn 0.9986 0.0000 0.0524
vn -0.7929 0.0000 -0.6093
vn -0.4135 0.0000 0.9105
vn 0.4313 0.0000 -0.9022
vn 0.8930 0.3284 -0.3078
vn -0.8387 -0.2776 0.4686
vn 0.0829 -0.9153 -0.3941
vn -0.1899 0.9554 0.2262
vn 0.4710 0.0622 0.8799
vn -0.3822 -0.3128 -0.8695
vn -0.0715 0.9667 0.2459
vn 0.9366 0.0000 -0.3503
vn -0.9883 0.0000 0.1524
vn -0.0182 0.0000 0.9998
vn 0.2792 0.0000 -0.9602
vn -0.9890 -0.0973 -0.1116
vn 0.1275 -0.9918 0.0032
vn 0.0561 0.9866 -0.1535
vn 0.6657 0.0861 0.7412
vn 0.7687 0.0532 -0.6374
vn -0.1385 0.9832 -0.1188
vn -0.6897 0.0000 0.7241
vn -0.0233 0.0000 -0.9997
vn -0.7241 0.0000 -0.6897
vn 0.7241 0.0000 0.6897
vn 0.8100 0.0000 -0.5865
vn -0.1231 0.9854 -0.1173
vn 0.1535 0.9835 0.0961
vn 0.7930 0.0000 -0.6093
vn -0.6776 0.0000 0.7354
vn 0.6093 0.0000 0.7930
vn -0.8477 0.0000 -0.5305
vn -0.5041 0.4072 -0.7616
vn -0.6676 0.3902 0.6340
vn 0.2670 0.8310 -0.4880
vn -0.8337 0.4774 -0.2777
vn 0.9931 0.1030 0.0554
vn 0.4724 -0.1016 0.8755
vn 0.8981 -0.1037 -0.4274
vn 0.6965 -0.2304 0.6796
vn 0.3994 -0.0251 -0.9164
vn 0.5431 0.2886 -0.7885
vn -0.9731 0.2283 0.0313
vn -0.8338 0.4772 -0.2776
vn 0.0103 0.9961 0.0874
vn 0.0102 0.9961 0.0876
vn 0.9428 -0.2198 0.2508
vn 0.0661 -0.9962 -0.0560
vn -0.6871 0.5829 -0.4337
vn -0.9124 0.4056 0.0557
vn 0.7914 0.1102 0.6012
vn 0.0558 -0.9979 -0.0338
vn -0.7442 -0.0218 0.6676
vn 0.1107 -0.9343 0.3388
vn 0.0205 -0.9938 0.1093
vn 0.0334 -0.4289 0.9027
vn 0.4438 0.1254 -0.8873
vn 0.3378 -0.8602 0.3821
vn -0.0467 0.9112 -0.4093
vn 0.1494 0.9749 -0.1650
vn 0.3013 0.3824 0.8735
vn -0.0042 -1.0000 -0.0000
vn 0.7809 0.5300 -0.3305
vn 0.2211 -0.5584 -0.7995
vn 0.5686 -0.6920 -0.4448
vn 0.8811 0.1804 0.4372
vn -0.0345 0.9599 0.2783
vn 0.5319 0.8070 0.2565
vn 0.0552 0.4228 -0.9045
vn -0.9651 -0.2536 -0.0653
vn -0.1248 0.4559 0.8812
vn -0.8317 -0.3070 -0.4627
vn -0.9399 -0.2395 -0.2434
vn -0.9538 -0.2896 -0.0800
vn 0.3161 0.6874 -0.6539
vn -0.0988 0.9710 0.2176
vn 0.9176 0.2845 -0.2775
vn -0.0054 0.9549 0.2968
vn -0.1173 0.9880 -0.1007
vn 0.1442 0.9716 0.1877
vn 0.7085 0.2026 0.6760
vn -0.5890 0.3081 -0.7471
vn 0.0286 -0.9971 -0.0710
vn -0.4169 0.4033 0.8146
vn -0.9548 -0.2791 -0.1022
s off
f 2/1/1 3/2/1 1/3/1
f 7/4/2 6/5/2 5/6/2
f 4/7/3 7/8/3 3/9/3
f 5/10/4 2/11/4 1/12/4
f 2/13/5 8/14/5 4/7/5
f 3/15/6 5/16/6 1/17/6
f 10/18/7 11/19/7 9/20/7
f 15/21/8 14/22/8 13/23/8
f 12/24/9 15/25/9 11/26/9
f 13/27/10 10/28/10 9/29/10
f 14/30/11 12/31/11 10/32/11
f 15/33/12 9/20/12 11/19/12
f 18/34/13 19/35/13 17/36/13
f 23/37/2 22/38/2 21/39/2
f 20/40/14 23/41/14 19/42/14
f 21/43/15 18/44/15 17/45/15
f 22/46/16 20/47/16 18/48/16
f 23/41/17 17/49/17 19/42/17
f 27/50/18 28/51/18 25/52/18
f 29/53/19 28/54/19 30/55/19
f 26/56/20 27/57/20 25/58/20
f 28/59/21 26/60/21 25/61/21
f 29/62/22 27/63/22 26/64/22
f 32/65/23 40/66/23 39/67/23
f 42/68/2 36/69/2 41/70/2
f 40/71/24 37/72/24 33/73/24
f 41/74/25 32/75/25 39/76/25
f 32/77/26 38/78/26 34/79/26
f 37/80/27 31/81/27 33/82/27
f 35/83/28 39/76/28 31/84/28
f 34/79/24 42/85/24 40/71/24
f 35/86/2 42/68/2 41/70/2
f 31/87/29 40/66/29 33/88/29
f 43/89/30 46/90/30 45/91/30
f 47/92/2 50/93/2 48/94/2
f 46/95/31 49/96/31 45/97/31
f 47/98/32 44/99/32 43/100/32
f 48/101/33 46/102/33 44/103/33
f 49/104/34 43/100/34 45/105/34
f 58/106/35 54/107/35 60/108/35
f 64/109/36 63/110/36 71/111/36
f 57/112/37 58/113/37 61/114/37
f 59/115/38 67/116/38 61/117/38
f 70/118/39 57/119/39 65/120/39
f 69/121/40 63/122/40 74/123/40
f 55/124/41 56/125/41 53/126/41
f 63/122/42 70/118/42 71/127/42
f 54/128/43 55/124/43 52/129/43
f 58/130/44 57/131/44 56/125/44
f 59/115/45 60/108/45 51/132/45
f 66/133/46 61/117/46 67/116/46
f 65/120/39 73/134/39 70/118/39
f 70/118/39 53/135/39 56/136/39
f 56/136/39 57/119/39 70/118/39
f 68/137/47 72/138/47 73/139/47
f 66/140/48 67/141/48 65/142/48
f 70/118/49 69/121/49 53/135/49
f 55/143/50 53/144/50 51/145/50
f 57/112/37 66/140/37 65/142/37
f 59/115/51 58/106/51 60/108/51
f 65/142/47 68/137/47 73/139/47
f 59/115/52 68/146/52 67/116/52
f 70/118/53 72/147/53 71/127/53
f 53/144/54 62/148/54 51/145/54
f 71/111/36 68/146/36 64/109/36
f 51/132/45 64/109/45 59/115/45
f 54/107/35 51/132/35 60/108/35
f 64/109/55 74/149/55 63/110/55
f 52/150/56 55/143/56 51/145/56
f 74/151/57 62/148/57 69/152/57
f 56/125/44 54/128/44 58/130/44
f 76/153/58 77/154/58 78/155/58
f 92/156/59 93/157/59 94/158/59
f 99/159/60 105/160/60 75/161/60
f 87/162/61 86/163/61 85/164/61
f 81/165/62 87/162/62 85/164/62
f 100/166/63 77/154/63 101/167/63
f 94/158/59 97/168/59 92/156/59
f 98/169/59 92/156/59 97/168/59
f 95/170/62 96/171/62 81/165/62
f 100/166/63 79/172/63 77/154/63
f 75/161/64 76/173/64 82/174/64
f 97/168/65 104/175/65 98/169/65
f 83/176/66 84/177/66 93/157/66
f 98/169/65 104/175/65 102/178/65
f 97/168/65 96/179/65 95/180/65
f 77/181/60 105/160/60 101/182/60
f 95/180/65 103/183/65 104/175/65
f 102/184/67 75/161/67 98/185/67
f 102/186/68 104/187/68 99/188/68
f 104/187/68 105/189/68 99/188/68
f 102/184/67 99/159/67 75/161/67
f 91/190/69 85/164/69 88/191/69
f 103/192/68 105/189/68 104/187/68
f 82/193/66 93/157/66 92/156/66
f 106/194/68 101/167/68 105/189/68
f 100/195/70 81/165/70 79/196/70
f 78/155/63 79/172/63 80/197/63
f 78/155/58 90/198/58 76/153/58
f 92/199/67 75/161/67 82/174/67
f 76/173/64 83/200/64 82/174/64
f 86/201/71 94/158/71 93/157/71
f 81/165/69 80/202/69 79/196/69
f 88/203/72 90/204/72 91/205/72
f 106/206/70 95/170/70 81/165/70
f 84/177/71 86/201/71 93/157/71
f 85/164/61 89/207/61 88/191/61
f 91/208/73 78/155/73 80/197/73
f 84/209/74 83/210/74 89/211/74
f 90/204/75 107/212/75 91/205/75
f 75/161/60 77/181/60 76/173/60
f 89/211/76 83/210/76 88/203/76
f 94/158/77 96/179/77 97/168/77
f 2/1/78 4/213/78 3/2/78
f 7/4/2 8/214/2 6/5/2
f 4/7/3 8/14/3 7/8/3
f 5/10/4 6/215/4 2/11/4
f 2/13/5 6/216/5 8/14/5
f 3/15/6 7/217/6 5/16/6
f 10/18/79 12/218/79 11/19/79
f 15/21/8 16/219/8 14/22/8
f 12/24/9 16/220/9 15/25/9
f 13/27/10 14/221/10 10/28/10
f 14/30/11 16/222/11 12/31/11
f 15/33/12 13/223/12 9/20/12
f 18/34/80 20/224/80 19/35/80
f 23/37/2 24/225/2 22/38/2
f 20/40/14 24/226/14 23/41/14
f 21/43/15 22/227/15 18/44/15
f 22/46/16 24/228/16 20/47/16
f 23/41/17 21/229/17 17/49/17
f 27/50/18 30/230/18 28/51/18
f 28/59/21 29/231/21 26/60/21
f 29/62/22 30/232/22 27/63/22
f 32/65/29 34/233/29 40/66/29
f 42/68/2 38/234/2 36/69/2
f 40/71/24 42/85/24 37/72/24
f 41/74/25 36/235/25 32/75/25
f 32/77/26 36/236/26 38/78/26
f 37/80/27 35/237/27 31/81/27
f 35/83/28 41/74/28 39/76/28
f 34/79/24 38/78/24 42/85/24
f 35/86/2 37/238/2 42/68/2
f 31/87/81 39/67/81 40/66/81
f 43/89/82 44/239/82 46/90/82
f 47/92/2 49/240/2 50/93/2
f 46/95/31 50/241/31 49/96/31
f 47/98/32 48/242/32 44/99/32
f 48/101/33 50/243/33 46/102/33
f 49/104/34 47/98/34 43/100/34
f 63/122/83 69/121/83 70/118/83
f 57/112/37 61/114/37 66/140/37
f 59/115/84 61/117/84 58/106/84
f 65/142/47 67/141/47 68/137/47
f 59/115/52 64/109/52 68/146/52
f 70/118/53 73/134/53 72/147/53
f 53/144/85 69/152/85 62/148/85
f 71/111/36 72/244/36 68/146/36
f 51/132/45 62/245/45 64/109/45
f 54/107/35 52/246/35 51/132/35
f 64/109/86 62/245/86 74/149/86
f 56/125/44 55/124/44 54/128/44
f 81/165/62 96/171/62 87/162/62
f 97/168/65 95/180/65 104/175/65
f 91/190/69 80/202/69 85/164/69
f 103/192/68 106/194/68 105/189/68
f 82/193/66 83/176/66 93/157/66
f 106/194/68 100/166/68 101/167/68
f 100/195/70 106/206/70 81/165/70
f 78/155/63 77/154/63 79/172/63
f 78/155/58 107/247/58 90/198/58
f 92/199/67 98/185/67 75/161/67
f 76/173/64 90/248/64 83/200/64
f 86/201/77 87/249/77 94/158/77
f 81/165/69 85/164/69 80/202/69
f 88/203/87 83/210/87 90/204/87
f 106/206/70 103/250/70 95/170/70
f 84/177/71 89/251/71 86/201/71
f 85/164/61 86/163/61 89/207/61
f 91/208/73 107/247/73 78/155/73
f 75/161/60 105/160/60 77/181/60
f 94/158/77 87/249/77 96/179/77
