# Blender v2.77 (sub 0) OBJ File: ''
# www.blender.org
g Rock_Round_m_15_Collider
v -0.242445 0.329146 -0.428169
v 0.103661 -0.048469 -0.376665
v -0.407899 -0.059028 -0.003789
v -0.400000 0.327878 -0.322996
v -0.400000 0.171301 0.164126
v 0.146153 -0.058173 0.263438
v -0.404517 1.548012 -0.010267
v 0.175602 1.619263 0.052258
v -0.112393 1.434713 -0.514433
v 0.398346 1.437848 -0.059453
v 0.208844 1.248330 0.304634
v 0.400298 0.762756 0.330065
v 0.391856 0.597551 -0.434338
v 0.371819 0.022899 -0.262674
v -0.233655 1.074037 0.317376
v -0.227970 0.317829 0.377218
v -0.400000 1.289546 -0.429864
vn -0.4881 -0.5408 -0.6850
vn -0.9996 0.0278 0.0089
vn -0.3649 -0.5403 0.7583
vn -0.0890 0.9595 -0.2672
vn 0.7571 0.3281 0.5649
vn 0.0344 -0.1041 -0.9940
vn 0.2699 -0.9623 -0.0325
vn -0.4566 -0.5606 -0.6908
vn 0.9999 -0.0031 -0.0104
vn 0.0188 0.0790 0.9967
vn 0.4081 0.7865 -0.4635
vn -0.1894 0.5407 0.8196
vn -0.8433 0.0648 0.5335
vn 0.6309 0.3120 -0.7104
vn -1.0000 -0.0034 -0.0011
vn -0.2611 -0.0445 -0.9643
vn -0.3781 -0.5916 0.7121
vn 0.8918 -0.3033 0.3358
vn 0.6677 0.4587 0.5863
vn 0.0244 -0.0806 -0.9964
vn 0.0091 -0.9998 -0.0158
vn 0.9994 -0.0358 -0.0033
vn -0.5042 0.7328 -0.4568
vn 0.1659 -0.1307 0.9774
vn 0.0071 0.0551 0.9985
vn -0.1546 0.5235 0.8379
vn -0.7914 0.0423 0.6098
vn 0.4368 -0.2714 -0.8576
vn -0.9999 -0.0011 -0.0101
vn -0.5523 -0.0921 -0.8285
s off
f 1//1 2//1 3//1
f 4//2 3//2 5//2
f 3//3 6//3 5//3
f 7//4 8//4 9//4
f 10//5 11//5 12//5
f 1//6 13//6 2//6
f 6//7 2//7 14//7
f 4//8 1//8 3//8
f 12//9 13//9 10//9
f 12//10 15//10 16//10
f 10//11 9//11 8//11
f 8//12 15//12 11//12
f 5//13 15//13 7//13
f 13//14 9//14 10//14
f 7//15 4//15 5//15
f 1//16 17//16 9//16
f 5//17 6//17 16//17
f 14//18 12//18 6//18
f 10//19 8//19 11//19
f 1//20 9//20 13//20
f 2//21 6//21 3//21
f 12//22 14//22 13//22
f 17//23 7//23 9//23
f 6//24 12//24 16//24
f 12//25 11//25 15//25
f 8//26 7//26 15//26
f 5//27 16//27 15//27
f 14//28 2//28 13//28
f 7//29 17//29 4//29
f 1//30 4//30 17//30
