# Blender v2.77 (sub 0) OBJ File: 'LowPoly_Level_Kit_Rocks.blend'
# www.blender.org
g Rock_Round_l_02_Collider
v 0.536579 0.159500 0.871688
v -0.144569 0.126894 1.137996
v -0.404660 1.104288 0.290472
v -0.029989 1.295530 0.205867
v -0.457821 1.057164 -0.007474
v -0.713391 0.072643 0.218990
v -0.993609 0.323979 -0.384304
v -1.082868 0.012929 -0.485513
v 0.170454 1.168738 0.621996
v 0.461432 1.057164 0.506232
v -0.225198 1.147913 0.878604
v -0.531642 1.035170 -0.508010
v 0.232972 0.121353 -0.611822
v -0.176196 0.878818 -0.858427
v 0.154990 0.763740 -0.494937
v -0.712859 0.485414 -1.113848
v 1.086684 0.136533 -0.215805
v 0.380853 -0.000000 0.731467
v -0.585369 1.085926 0.729907
v 0.807957 0.754332 -0.191501
v -0.794182 0.050681 0.857409
v 0.627654 0.754332 -0.415960
v 0.772031 0.107570 -0.605341
v -0.200992 -0.000001 -1.193697
v -0.830537 0.000000 -1.200828
vn -0.4641 0.8840 -0.0570
vn -0.8843 0.1058 0.4548
vn 0.3883 0.9169 0.0923
vn -0.6669 0.5252 0.5286
vn 0.5178 0.2488 0.8185
vn 0.1065 0.9643 0.2425
vn 0.7549 0.2050 -0.6229
vn -0.8989 0.3456 -0.2694
vn 0.5436 -0.7871 0.2916
vn -0.2260 0.9632 0.1458
vn 0.3675 0.9252 -0.0949
vn 0.8354 0.3606 0.4149
vn 0.2642 -0.7693 0.5816
vn -0.9501 0.2920 -0.1102
vn -0.1224 0.7748 -0.6202
vn 0.3680 0.9289 -0.0412
vn -0.4028 0.1954 0.8942
vn -0.9179 0.1394 -0.3716
vn 0.0188 0.2848 -0.9584
vn 0.7297 0.3522 -0.5861
vn 0.7617 0.2121 -0.6123
vn 0.1844 0.3458 -0.9200
vn 0.5168 0.8366 -0.1816
vn -0.9523 0.2767 0.1283
vn 0.4467 0.2850 0.8481
vn -0.2642 0.7523 -0.6036
vn -0.4772 0.8641 -0.1601
vn 0.9083 0.2207 0.3553
vn -0.9527 0.2764 0.1263
vn 0.1132 0.8057 -0.5815
vn -0.4080 0.1922 0.8925
vn 0.1654 0.1959 -0.9666
vn 0.3210 0.3800 0.8675
vn -0.8362 0.5067 -0.2097
vn 0.7196 0.3382 -0.6064
vn 0.0112 0.1737 -0.9847
vn 0.3069 0.9192 -0.2465
vn -0.9045 0.2773 -0.3241
s off
f 3//1 4//1 5//1
f 6//2 7//2 8//2
f 4//3 9//3 10//3
f 6//4 12//4 7//4
f 2//5 9//5 11//5
f 11//6 9//6 4//6
f 13//7 14//7 15//7
f 7//8 16//8 8//8
f 17//9 1//9 18//9
f 4//10 19//10 11//10
f 5//11 15//11 12//11
f 20//12 1//12 17//12
f 2//13 18//13 1//13
f 3//14 6//14 21//14
f 4//15 15//15 5//15
f 12//16 15//16 14//16
f 19//17 2//17 11//17
f 21//18 19//18 3//18
f 13//19 22//19 23//19
f 17//20 22//20 20//20
f 13//21 24//21 14//21
f 24//22 16//22 14//22
f 10//23 22//23 4//23
f 6//24 5//24 12//24
f 9//25 2//25 10//25
f 16//26 12//26 14//26
f 4//27 3//27 19//27
f 20//28 10//28 1//28
f 3//29 5//29 6//29
f 4//30 22//30 15//30
f 19//31 21//31 2//31
f 13//32 15//32 22//32
f 2//33 1//33 10//33
f 7//34 12//34 16//34
f 17//35 23//35 22//35
f 24//36 25//36 16//36
f 10//37 20//37 22//37
f 16//38 25//38 8//38
