# Blender v2.77 (sub 0) OBJ File: ''
# www.blender.org
g Rock_Round_m_09_Collider
v 0.232485 0.464753 0.663797
v -0.266380 0.696291 0.449969
v 0.064301 0.175296 0.672168
v -0.348545 -0.000827 0.233966
v 0.431840 -0.003135 0.369675
v -0.738436 0.354087 0.296734
v 0.076303 0.546633 -0.694443
v 0.383680 0.749361 0.179485
v 0.507444 0.638415 -0.341275
v 0.362455 -0.000333 -0.186443
v 0.104886 0.163722 -0.735109
v 0.766254 0.258334 -0.239392
v -0.578566 0.466584 -0.481207
v -0.287445 -0.000053 -0.507668
v -0.289273 0.740451 -0.093163
v 0.635125 0.344781 0.459271
v -0.716523 0.252623 -0.097382
vn -0.3043 0.2037 0.9305
vn -0.0782 -0.8974 0.4343
vn -0.3944 0.1372 0.9086
vn -0.0313 0.9760 -0.2154
vn 0.4424 -0.7808 -0.4411
vn -0.3172 0.0767 -0.9453
vn -0.4440 -0.6047 0.6613
vn 0.5740 0.1766 -0.7996
vn 0.5315 -0.8441 -0.0706
vn 0.0001 -1.0000 -0.0010
vn 0.8154 0.5744 0.0714
vn -0.0468 0.9955 0.0829
vn 0.1553 0.8297 0.5361
vn 0.4264 -0.4510 0.7841
vn -0.6513 -0.7429 0.1550
vn 0.3946 -0.2034 0.8961
vn -0.2461 0.8688 -0.4297
vn -0.9277 0.3459 -0.1406
vn -0.6035 0.7923 0.0899
vn -0.7428 -0.4346 -0.5092
vn 0.0906 0.9626 -0.2552
vn 0.1760 -0.9174 -0.3569
vn 0.6119 0.1286 -0.7804
vn -0.0021 -1.0000 -0.0048
vn 0.8194 0.5671 0.0836
vn -0.5387 -0.8413 -0.0453
vn 0.4827 0.6809 0.5508
vn -0.6663 0.7451 -0.0292
vn -0.4219 -0.2132 -0.8812
vn 0.8167 -0.5337 0.2193
s off
f 1//1 2//1 3//1
f 4//2 5//2 3//2
f 2//3 6//3 3//3
f 7//4 8//4 9//4
f 10//5 11//5 12//5
f 7//6 11//6 13//6
f 4//7 3//7 6//7
f 11//8 9//8 12//8
f 10//9 12//9 5//9
f 10//10 4//10 14//10
f 8//11 12//11 9//11
f 8//12 15//12 2//12
f 2//13 1//13 8//13
f 16//14 3//14 5//14
f 17//15 4//15 6//15
f 16//16 1//16 3//16
f 15//17 7//17 13//17
f 13//18 17//18 6//18
f 15//19 6//19 2//19
f 13//20 14//20 17//20
f 7//21 15//21 8//21
f 10//22 14//22 11//22
f 11//23 7//23 9//23
f 10//24 5//24 4//24
f 8//25 16//25 12//25
f 17//26 14//26 4//26
f 8//27 1//27 16//27
f 15//28 13//28 6//28
f 13//29 11//29 14//29
f 12//30 16//30 5//30
