# Blender v2.77 (sub 0) OBJ File: ''
# www.blender.org
g Rock_Round_m_11_Collider
v 0.724010 0.352173 -0.075472
v 0.298514 0.253320 -0.514030
v 0.184737 0.522923 -0.084475
v 0.742351 -0.000011 0.244660
v 0.813647 -0.000301 -0.170106
v -0.023866 -0.000039 0.575518
v 0.548767 0.350656 0.260383
v -0.029229 0.188672 0.541312
v -0.246668 0.161830 -0.533129
v -0.314789 0.481821 -0.016371
v -0.039710 0.502836 0.201068
v 0.321633 -0.001042 -0.618983
v -0.479326 0.093753 0.283102
v -0.555458 -0.000037 -0.257878
vn 0.2753 0.8454 -0.4577
vn 0.9655 0.2010 0.1658
vn 0.3903 0.1749 0.9039
vn 0.8022 0.4240 0.4205
vn -0.1194 0.8264 -0.5503
vn 0.6329 0.3468 -0.6922
vn -0.0811 0.9967 0.0063
vn -0.0312 0.3788 -0.9249
vn -0.5146 0.1387 0.8461
vn 0.1214 0.7311 0.6713
vn -0.4802 0.6370 0.6030
vn -0.6931 0.5684 -0.4433
vn 0.2362 0.9633 0.1276
vn -0.1414 0.8332 -0.5346
vn -0.9038 0.4246 0.0536
vn 0.6326 0.3438 -0.6940
vn 0.2847 0.9143 0.2881
vn -0.5003 0.6519 0.5699
s off
f 1//1 2//1 3//1
f 1//2 4//2 5//2
f 6//3 7//3 8//3
f 1//4 7//4 4//4
f 9//5 3//5 2//5
f 5//6 2//6 1//6
f 10//7 11//7 3//7
f 12//8 9//8 2//8
f 8//9 13//9 6//9
f 8//10 7//10 11//10
f 11//11 13//11 8//11
f 14//12 10//12 9//12
f 1//13 11//13 7//13
f 6//3 4//3 7//3
f 9//14 10//14 3//14
f 13//15 10//15 14//15
f 5//16 12//16 2//16
f 11//17 1//17 3//17
f 11//18 10//18 13//18
