# Blender v2.77 (sub 0) OBJ File: ''
# www.blender.org
g Rock_Round_m_12_Collider
v -0.489431 0.434655 0.305184
v -0.783144 0.240038 0.201391
v -0.129871 0.107806 0.536600
v -0.292135 -0.000179 -0.434618
v 0.640108 0.048811 0.030470
v -0.168514 -0.000001 0.226458
v 0.848375 0.158466 -0.109981
v 0.783144 0.198730 0.157579
v -0.446875 0.126608 -0.507520
v -0.809206 0.252469 -0.190575
v -0.135338 0.396547 -0.516026
v -0.738926 0.017451 0.065301
v 0.137964 0.151412 -0.508907
v 0.028913 0.203321 0.508907
v 0.540258 0.343688 -0.311395
v 0.433479 0.423574 -0.084746
vn -0.4238 0.1645 0.8907
vn 0.0577 -0.9983 -0.0105
vn 0.5805 -0.7724 0.2578
vn -0.4602 0.5082 -0.7279
vn -0.0324 -0.9995 0.0063
vn 0.0183 -0.4815 -0.8763
vn 0.3852 -0.3991 0.8321
vn 0.4864 -0.1303 -0.8639
vn -0.6116 -0.6592 -0.4375
vn 0.1321 -0.9413 0.3107
vn 0.2293 -0.9025 -0.3646
vn 0.2392 -0.8799 -0.4105
vn 0.2239 0.8541 0.4695
vn 0.5360 0.8431 -0.0446
vn -0.5668 0.8214 0.0637
vn -0.1319 0.4720 0.8717
vn 0.1542 0.9524 -0.2630
vn -0.9719 -0.2282 0.0574
vn 0.3089 -0.7691 0.5595
vn 0.2978 0.3058 -0.9043
vn -0.1245 -0.9323 0.3396
vn -0.4670 -0.7939 -0.3894
vn -0.0093 0.9987 -0.0503
vn 0.2048 0.8639 0.4601
vn 0.5386 0.8425 0.0045
vn -0.4701 -0.5265 0.7084
vn -0.2820 0.9451 -0.1654
vn -0.0011 -0.0302 -0.9995
s off
f 1//1 2//1 3//1
f 4//2 5//2 6//2
f 5//3 7//3 8//3
f 9//4 10//4 11//4
f 4//5 6//5 12//5
f 13//6 4//6 9//6
f 3//7 8//7 14//7
f 13//8 15//8 7//8
f 9//9 12//9 10//9
f 5//10 3//10 6//10
f 4//11 7//11 5//11
f 4//12 13//12 7//12
f 16//13 14//13 8//13
f 16//14 7//14 15//14
f 2//15 1//15 10//15
f 1//16 3//16 14//16
f 16//17 15//17 11//17
f 12//18 2//18 10//18
f 3//19 5//19 8//19
f 13//20 11//20 15//20
f 12//21 6//21 3//21
f 9//22 4//22 12//22
f 1//23 16//23 11//23
f 16//24 1//24 14//24
f 16//25 8//25 7//25
f 2//26 12//26 3//26
f 10//27 1//27 11//27
f 13//28 9//28 11//28
