# Blender v2.77 (sub 0) OBJ File: ''
# www.blender.org
g Rocks_Round_l_03_Collider
v -0.632441 0.854798 0.624785
v -0.305383 0.113988 0.352220
v -0.102854 1.153273 0.130194
v 1.022985 2.212545 -0.142134
v 1.337175 1.398843 -0.576544
v 0.684495 1.966376 -0.925565
v 1.078228 -0.016630 0.456957
v 1.334426 1.714116 0.021866
v 1.062444 1.693181 0.413415
v -0.504096 1.176232 -0.738376
v -1.115255 1.222281 0.063977
v -1.244564 1.259967 0.708020
v -0.667706 0.108709 0.579279
v -0.730424 0.062721 1.170815
v 0.159619 0.479017 -1.114967
v -0.028874 1.940022 -0.858251
v -0.219104 0.101769 0.105627
v 0.529315 0.250748 0.451291
v -0.102934 0.867959 -0.138683
v 0.286759 1.442061 0.201925
v 0.677294 0.377498 -1.177006
v 0.300102 0.009000 -0.952884
v 1.315057 0.068982 -0.794938
v 0.781934 1.019787 0.597129
v -0.107635 -0.092430 -0.200721
v 0.527709 -0.073080 0.267483
v -0.362510 0.836972 -0.425778
v 0.404714 1.724361 0.437493
v -0.264536 1.904495 -0.396148
v 1.306159 0.003585 0.125820
v -0.726246 0.129443 0.550490
v 0.190162 1.753165 0.710150
v -0.678005 1.758935 1.126885
v -0.109138 1.200753 1.232682
v -0.991655 1.642740 0.342165
v -1.073798 0.589867 -0.888270
v -0.620631 0.176547 -0.899468
v 0.474140 0.688791 0.794919
v -0.082285 0.226329 1.281080
v -0.066413 0.284042 -0.389365
v -1.434280 0.241650 -0.319195
vn 0.6744 0.0262 0.7379
vn 0.7086 0.5252 -0.4712
vn 0.8205 0.0221 0.5712
vn 0.0683 0.9976 -0.0052
vn -0.8923 -0.4328 -0.1283
vn -0.0986 0.1599 -0.9822
vn -0.6997 -0.2769 -0.6586
vn 0.6728 -0.0178 -0.7396
vn -0.1815 -0.3686 -0.9117
vn 0.1560 -0.6249 -0.7650
vn 0.8570 0.4575 -0.2371
vn 0.5021 0.0266 0.8644
vn -0.5879 -0.1052 0.8021
vn -0.7730 0.0534 0.6321
vn -0.6407 -0.1736 0.7479
vn 0.9998 -0.0180 0.0084
vn 0.0595 0.7313 0.6794
vn -0.7481 0.0288 0.6630
vn -0.2987 -0.2113 0.9307
vn 0.3714 0.5238 0.7666
vn -0.0128 0.5166 -0.8561
vn -0.5689 0.6734 -0.4720
vn -0.6162 0.0394 0.7866
vn -0.6319 -0.2751 -0.7246
vn -0.0536 0.9907 -0.1253
vn -0.2250 0.9735 -0.0399
vn -0.1539 0.0303 0.9876
vn -0.8074 -0.3384 -0.4833
vn -0.8202 -0.3896 -0.4190
vn 0.6588 0.5723 0.4882
vn -0.8898 0.0941 -0.4465
vn 0.5539 0.1259 -0.8230
vn 0.0227 0.8450 0.5342
vn 0.1087 0.1458 -0.9833
vn 0.6302 0.0558 0.7744
vn 0.9654 0.2595 0.0246
vn 0.8229 0.0209 0.5677
vn -0.0873 0.1561 -0.9839
vn -0.6662 -0.0021 0.7458
vn 0.9523 -0.1262 0.2779
vn -0.7246 0.6619 0.1916
vn 0.9998 -0.0157 0.0129
vn -0.0614 0.9595 -0.2750
vn 0.0471 0.2446 0.9685
vn 0.0786 0.8568 -0.5096
vn 0.6724 0.0407 -0.7391
vn -0.5148 -0.5465 -0.6605
vn 0.4492 -0.3325 -0.8293
vn -0.7751 0.0053 0.6318
vn -0.8650 0.3999 -0.3032
vn -0.6218 -0.1508 -0.7685
vn 0.4172 -0.1458 0.8970
vn -0.2885 0.8615 0.4178
vn -0.1783 0.0439 0.9830
vn -0.7962 0.0036 -0.6051
vn 0.5519 0.1279 -0.8241
vn 0.7626 -0.3371 0.5521
vn 0.8758 0.2742 -0.3973
vn 0.7093 0.2420 0.6621
vn 0.9800 0.1835 -0.0766
s off
f 1//1 2//1 3//1
f 4//2 5//2 6//2
f 7//3 8//3 9//3
f 3//4 10//4 11//4
f 12//5 13//5 14//5
f 6//6 15//6 16//6
f 17//7 13//7 12//7
f 18//8 19//8 20//8
f 21//9 22//9 15//9
f 21//10 23//10 22//10
f 4//11 8//11 5//11
f 24//12 7//12 9//12
f 25//13 26//13 24//13
f 27//14 28//14 29//14
f 27//15 24//15 28//15
f 5//16 30//16 23//16
f 28//17 9//17 4//17
f 11//18 31//18 1//18
f 26//19 7//19 24//19
f 32//20 33//20 34//20
f 19//21 35//21 20//21
f 36//22 11//22 10//22
f 12//23 14//23 33//23
f 19//24 12//24 35//24
f 35//25 33//25 32//25
f 16//26 29//26 4//26
f 14//27 34//27 33//27
f 25//28 27//28 22//28
f 27//29 15//29 22//29
f 8//30 4//30 9//30
f 16//31 27//31 29//31
f 21//32 5//32 23//32
f 1//33 3//33 11//33
f 36//34 10//34 37//34
f 38//35 34//35 39//35
f 38//36 20//36 32//36
f 7//37 30//37 8//37
f 6//38 21//38 15//38
f 27//39 25//39 24//39
f 40//40 3//40 2//40
f 33//41 35//41 12//41
f 5//42 8//42 30//42
f 6//43 16//43 4//43
f 28//44 24//44 9//44
f 20//45 35//45 32//45
f 37//46 10//46 40//46
f 36//47 37//47 41//47
f 17//48 19//48 18//48
f 11//49 41//49 31//49
f 36//50 41//50 11//50
f 19//51 17//51 12//51
f 1//52 31//52 2//52
f 29//53 28//53 4//53
f 14//54 39//54 34//54
f 16//55 15//55 27//55
f 21//56 6//56 5//56
f 39//57 18//57 38//57
f 3//58 40//58 10//58
f 38//59 32//59 34//59
f 38//60 18//60 20//60
