# Blender v2.77 (sub 0) OBJ File: ''
# www.blender.org
g Rock_Round_m_10_Collider
v -0.441681 0.447886 0.309438
v 0.223844 0.522378 0.471346
v -0.016438 0.685577 -0.083696
v 0.339428 0.004198 -0.142892
v 0.065787 -0.000000 0.255240
v -0.239960 -0.000000 0.135582
v -0.444074 0.022572 -0.086819
v -0.459000 0.406183 -0.190638
v -0.134005 0.060462 -0.465621
v 0.148695 0.123540 0.456001
v 0.460623 0.245968 0.356246
v 0.459000 0.182154 -0.178011
v 0.197401 0.398440 -0.469092
v 0.467285 0.592948 -0.063061
v -0.233439 0.259795 0.467554
v -0.202989 0.577844 -0.428000
v -0.460802 0.135305 0.197039
vn -0.1881 0.9172 0.3511
vn 0.0033 -1.0000 -0.0083
vn -0.9989 -0.0289 0.0370
vn -0.0322 -0.9916 -0.1256
vn 0.3384 -0.0998 0.9357
vn 0.7884 0.1510 -0.5964
vn 0.4619 -0.4607 -0.7579
vn -0.2355 -0.7631 0.6018
vn 0.4351 -0.8359 0.3347
vn 0.8341 -0.5480 0.0629
vn 0.3292 0.8355 -0.4398
vn -0.2945 -0.7498 0.5925
vn -0.0741 0.0625 -0.9953
vn -0.6668 -0.0348 -0.7444
vn 0.4625 -0.4603 -0.7577
vn 0.1755 0.9625 0.2070
vn 0.7692 0.4863 0.4146
vn -0.5385 0.8422 0.0283
vn -0.2585 0.4377 0.8611
vn -0.7017 -0.2027 0.6830
vn -0.9908 0.0952 -0.0962
vn 0.0155 -0.0413 0.9990
vn -0.0287 -0.9968 -0.0748
vn -0.2576 -0.7718 0.5813
vn 0.4482 -0.8424 0.2992
vn 0.1820 0.8342 -0.5206
vn -0.7482 -0.2003 -0.6325
vn -0.4322 -0.8466 0.3107
vn 0.9998 -0.0200 -0.0007
vn -0.5239 0.8501 -0.0527
s off
f 1//1 2//1 3//1
f 4//2 5//2 6//2
f 7//3 1//3 8//3
f 4//4 7//4 9//4
f 2//5 10//5 11//5
f 12//6 13//6 14//6
f 4//7 9//7 13//7
f 5//8 15//8 6//8
f 5//9 11//9 10//9
f 4//10 12//10 11//10
f 3//11 13//11 16//11
f 15//12 17//12 6//12
f 13//13 9//13 16//13
f 9//14 8//14 16//14
f 12//15 4//15 13//15
f 14//16 3//16 2//16
f 2//17 11//17 14//17
f 8//18 3//18 16//18
f 15//19 2//19 1//19
f 17//20 15//20 1//20
f 7//21 17//21 1//21
f 2//22 15//22 10//22
f 4//23 6//23 7//23
f 5//24 10//24 15//24
f 5//25 4//25 11//25
f 3//26 14//26 13//26
f 9//27 7//27 8//27
f 17//28 7//28 6//28
f 14//29 11//29 12//29
f 8//30 1//30 3//30
