# Blender v2.77 (sub 0) OBJ File: ''
# www.blender.org
g Rock_Round_s_01_Collider
v 0.290805 0.053958 -0.009570
v -0.046431 0.111271 -0.219548
v 0.024225 0.194975 0.002631
v -0.172755 0.102179 -0.119986
v -0.097596 0.099331 0.148820
v 0.176380 0.107549 0.137647
v -0.094823 -0.005160 -0.281855
v -0.207510 0.001820 -0.046015
v -0.042608 -0.000591 0.204624
v 0.302841 0.001029 0.101966
vn 0.4061 0.8051 -0.4324
vn -0.2730 0.9257 -0.2619
vn -0.4952 0.8562 0.1475
vn -0.0029 0.8379 0.5458
vn 0.4687 0.8823 0.0431
vn 0.5422 0.2100 -0.8136
vn -0.5371 0.5605 -0.6303
vn -0.8477 0.4720 0.2420
vn 0.0205 0.4961 0.8680
vn 0.6639 0.7008 0.2609
vn -0.9023 -0.0052 -0.4310
vn -0.8264 -0.1519 0.5422
vn 0.2847 0.0170 0.9585
s off
f 1//1 2//1 3//1
f 2//2 4//2 3//2
f 4//3 5//3 3//3
f 5//4 6//4 3//4
f 6//5 1//5 3//5
f 1//6 7//6 2//6
f 7//7 4//7 2//7
f 8//8 5//8 4//8
f 9//9 6//9 5//9
f 10//10 1//10 6//10
f 7//11 8//11 4//11
f 8//12 9//12 5//12
f 9//13 10//13 6//13
